<?xml version="1.0" encoding="UTF-8" standalone="no"?>
<!DOCTYPE svg PUBLIC "-//W3C//DTD SVG 1.1//EN"
 "http://www.w3.org/Graphics/SVG/1.1/DTD/svg11.dtd">
<!-- Generated by graphviz version 2.40.1 (20161225.0304)
 -->
<!-- Title: FlashChain Pages: 1 -->
<svg width="401pt" height="50pt"
 viewBox="0.00 0.00 400.85 49.60" xmlns="http://www.w3.org/2000/svg" xmlns:xlink="http://www.w3.org/1999/xlink">
<g id="graph0" class="graph" transform="scale(1 1) rotate(0) translate(4 45.6)">
<title>FlashChain</title>
<polygon fill="#ffffff" stroke="transparent" points="-4,4 -4,-45.6 396.8458,-45.6 396.8458,4 -4,4"/>
<!-- PC -->
<g id="node1" class="node">
<title>PC</title>
<polygon fill="none" stroke="#000000" points="75.8234,-41.4019 .0588,-41.4019 .0588,-.1981 75.8234,-.1981 75.8234,-41.4019"/>
<text text-anchor="middle" x="37.9411" y="-25" font-family="Times,serif" font-size="14.00" fill="#000000">电脑</text>
<text text-anchor="middle" x="37.9411" y="-8.2" font-family="Times,serif" font-size="14.00" fill="#000000">FlashGBX</text>
</g>
<!-- Flasher -->
<g id="node2" class="node">
<title>Flasher</title>
<polygon fill="none" stroke="#000000" points="232.0681,-38.8 139.1213,-38.8 139.1213,-2.8 232.0681,-2.8 232.0681,-38.8"/>
<text text-anchor="middle" x="185.5947" y="-16.6" font-family="Times,serif" font-size="14.00" fill="#000000">BaconFlasher</text>
</g>
<!-- PC&#45;&gt;Flasher -->
<g id="edge1" class="edge">
<title>PC&#45;&gt;Flasher</title>
<path fill="none" stroke="#000000" d="M75.9656,-20.8C92.0369,-20.8 111.0949,-20.8 128.7764,-20.8"/>
<polygon fill="#000000" stroke="#000000" points="128.995,-24.3001 138.995,-20.8 128.9949,-17.3001 128.995,-24.3001"/>
<text text-anchor="middle" x="107.4951" y="-25" font-family="Times,serif" font-size="14.00" fill="#000000">USB</text>
</g>
<!-- Cartridge -->
<g id="node3" class="node">
<title>Cartridge</title>
<polygon fill="none" stroke="#000000" points="392.8458,-38.8 338.8458,-38.8 338.8458,-2.8 392.8458,-2.8 392.8458,-38.8"/>
<text text-anchor="middle" x="365.8458" y="-16.6" font-family="Times,serif" font-size="14.00" fill="#000000">卡带</text>
</g>
<!-- Flasher&#45;&gt;Cartridge -->
<g id="edge2" class="edge">
<title>Flasher&#45;&gt;Cartridge</title>
<path fill="none" stroke="#000000" d="M232.483,-20.8C262.4514,-20.8 300.7787,-20.8 328.6482,-20.8"/>
<polygon fill="#000000" stroke="#000000" points="328.7782,-24.3001 338.7781,-20.8 328.7781,-17.3001 328.7782,-24.3001"/>
<text text-anchor="middle" x="285.4636" y="-25" font-family="Times,serif" font-size="14.00" fill="#000000">金手指/针孔</text>
</g>
</g>
</svg>
