<?xml version="1.0" encoding="UTF-8" standalone="no"?>
<!DOCTYPE svg PUBLIC "-//W3C//DTD SVG 1.1//EN"
 "http://www.w3.org/Graphics/SVG/1.1/DTD/svg11.dtd">
<!-- Generated by graphviz version 2.40.1 (20161225.0304)
 -->
<!-- Title: dependency Pages: 1 -->
<svg width="411pt" height="44pt"
 viewBox="0.00 0.00 411.33 44.00" xmlns="http://www.w3.org/2000/svg" xmlns:xlink="http://www.w3.org/1999/xlink">
<g id="graph0" class="graph" transform="scale(1 1) rotate(0) translate(4 40)">
<title>dependency</title>
<polygon fill="#ffffff" stroke="transparent" points="-4,4 -4,-40 407.3273,-40 407.3273,4 -4,4"/>
<!-- gplearn -->
<g id="node1" class="node">
<title>gplearn</title>
<ellipse fill="none" stroke="#000000" cx="39.9938" cy="-18" rx="39.9876" ry="18"/>
<text text-anchor="middle" x="39.9938" y="-13.8" font-family="Times,serif" font-size="14.00" fill="#000000">gplearn</text>
</g>
<!-- SymPy -->
<g id="node2" class="node">
<title>SymPy</title>
<ellipse fill="none" stroke="#000000" cx="154.9298" cy="-18" rx="38.8844" ry="18"/>
<text text-anchor="middle" x="154.9298" y="-13.8" font-family="Times,serif" font-size="14.00" fill="#000000">SymPy</text>
</g>
<!-- gplearn&#45;&gt;SymPy -->
<g id="edge1" class="edge">
<title>gplearn&#45;&gt;SymPy</title>
<path fill="none" stroke="#000000" d="M80.1929,-18C88.3848,-18 97.0929,-18 105.5616,-18"/>
<polygon fill="#000000" stroke="#000000" points="105.722,-21.5001 115.7219,-18 105.7219,-14.5001 105.722,-21.5001"/>
</g>
<!-- LaTeX -->
<g id="node3" class="node">
<title>LaTeX</title>
<ellipse fill="none" stroke="#000000" cx="268.2522" cy="-18" rx="38.2607" ry="18"/>
<text text-anchor="middle" x="268.2522" y="-13.8" font-family="Times,serif" font-size="14.00" fill="#000000">LaTeX</text>
</g>
<!-- SymPy&#45;&gt;LaTeX -->
<g id="edge2" class="edge">
<title>SymPy&#45;&gt;LaTeX</title>
<path fill="none" stroke="#000000" d="M193.9289,-18C202.122,-18 210.8624,-18 219.3648,-18"/>
<polygon fill="#000000" stroke="#000000" points="219.5651,-21.5001 229.565,-18 219.565,-14.5001 219.5651,-21.5001"/>
</g>
<!-- SVG -->
<g id="node4" class="node">
<title>SVG</title>
<ellipse fill="none" stroke="#000000" cx="372.9798" cy="-18" rx="30.1958" ry="18"/>
<text text-anchor="middle" x="372.9798" y="-13.8" font-family="Times,serif" font-size="14.00" fill="#000000">SVG</text>
</g>
<!-- LaTeX&#45;&gt;SVG -->
<g id="edge3" class="edge">
<title>LaTeX&#45;&gt;SVG</title>
<path fill="none" stroke="#000000" d="M306.6542,-18C315.0377,-18 323.9364,-18 332.4016,-18"/>
<polygon fill="#000000" stroke="#000000" points="332.4486,-21.5001 342.4485,-18 332.4485,-14.5001 332.4486,-21.5001"/>
</g>
</g>
</svg>
