<?xml version="1.0" encoding="UTF-8" standalone="no"?>
<!DOCTYPE svg PUBLIC "-//W3C//DTD SVG 1.1//EN"
 "http://www.w3.org/Graphics/SVG/1.1/DTD/svg11.dtd">
<!-- Generated by graphviz version 2.40.1 (20161225.0304)
 -->
<!-- Title: program Pages: 1 -->
<svg width="372pt" height="476pt"
 viewBox="0.00 0.00 371.59 476.00" xmlns="http://www.w3.org/2000/svg" xmlns:xlink="http://www.w3.org/1999/xlink">
<g id="graph0" class="graph" transform="scale(1 1) rotate(0) translate(4 472)">
<title>program</title>
<polygon fill="#ffffff" stroke="transparent" points="-4,4 -4,-472 367.5931,-472 367.5931,4 -4,4"/>
<!-- 0 -->
<g id="node1" class="node">
<title>0</title>
<ellipse fill="#136ed4" stroke="#000000" cx="156.5931" cy="-450" rx="27" ry="18"/>
<text text-anchor="middle" x="156.5931" y="-445.8" font-family="Times,serif" font-size="14.00" fill="#000000">add</text>
</g>
<!-- 1 -->
<g id="node2" class="node">
<title>1</title>
<ellipse fill="#136ed4" stroke="#000000" cx="120.5931" cy="-378" rx="27" ry="18"/>
<text text-anchor="middle" x="120.5931" y="-373.8" font-family="Times,serif" font-size="14.00" fill="#000000">add</text>
</g>
<!-- 0&#45;&gt;1 -->
<g id="edge16" class="edge">
<title>0&#45;&gt;1</title>
<path fill="none" stroke="#000000" d="M147.8785,-432.5708C143.6334,-424.0807 138.4395,-413.6929 133.7268,-404.2674"/>
<polygon fill="#000000" stroke="#000000" points="136.8301,-402.6477 129.2274,-395.2687 130.5691,-405.7782 136.8301,-402.6477"/>
</g>
<!-- 4 -->
<g id="node5" class="node">
<title>4</title>
<ellipse fill="#136ed4" stroke="#000000" cx="192.5931" cy="-378" rx="27" ry="18"/>
<text text-anchor="middle" x="192.5931" y="-373.8" font-family="Times,serif" font-size="14.00" fill="#000000">mul</text>
</g>
<!-- 0&#45;&gt;4 -->
<g id="edge15" class="edge">
<title>0&#45;&gt;4</title>
<path fill="none" stroke="#000000" d="M165.3077,-432.5708C169.5528,-424.0807 174.7467,-413.6929 179.4594,-404.2674"/>
<polygon fill="#000000" stroke="#000000" points="182.6171,-405.7782 183.9588,-395.2687 176.3561,-402.6477 182.6171,-405.7782"/>
</g>
<!-- 2 -->
<g id="node3" class="node">
<title>2</title>
<ellipse fill="#60a6f6" stroke="#000000" cx="37.5931" cy="-306" rx="37.6864" ry="18"/>
<text text-anchor="middle" x="37.5931" y="-301.8" font-family="Times,serif" font-size="14.00" fill="#000000">43.151</text>
</g>
<!-- 1&#45;&gt;2 -->
<g id="edge2" class="edge">
<title>1&#45;&gt;2</title>
<path fill="none" stroke="#000000" d="M103.7968,-363.4297C92.264,-353.4253 76.7292,-339.9494 63.6064,-328.5657"/>
<polygon fill="#000000" stroke="#000000" points="65.652,-325.7069 55.8046,-321.7979 61.065,-330.9946 65.652,-325.7069"/>
</g>
<!-- 3 -->
<g id="node4" class="node">
<title>3</title>
<ellipse fill="#60a6f6" stroke="#000000" cx="120.5931" cy="-306" rx="27" ry="18"/>
<text text-anchor="middle" x="120.5931" y="-301.8" font-family="Times,serif" font-size="14.00" fill="#000000">X3</text>
</g>
<!-- 1&#45;&gt;3 -->
<g id="edge1" class="edge">
<title>1&#45;&gt;3</title>
<path fill="none" stroke="#000000" d="M120.5931,-359.8314C120.5931,-352.131 120.5931,-342.9743 120.5931,-334.4166"/>
<polygon fill="#000000" stroke="#000000" points="124.0932,-334.4132 120.5931,-324.4133 117.0932,-334.4133 124.0932,-334.4132"/>
</g>
<!-- 5 -->
<g id="node6" class="node">
<title>5</title>
<ellipse fill="#136ed4" stroke="#000000" cx="192.5931" cy="-306" rx="27" ry="18"/>
<text text-anchor="middle" x="192.5931" y="-301.8" font-family="Times,serif" font-size="14.00" fill="#000000">add</text>
</g>
<!-- 4&#45;&gt;5 -->
<g id="edge14" class="edge">
<title>4&#45;&gt;5</title>
<path fill="none" stroke="#000000" d="M192.5931,-359.8314C192.5931,-352.131 192.5931,-342.9743 192.5931,-334.4166"/>
<polygon fill="#000000" stroke="#000000" points="196.0932,-334.4132 192.5931,-324.4133 189.0932,-334.4133 196.0932,-334.4132"/>
</g>
<!-- 14 -->
<g id="node15" class="node">
<title>14</title>
<ellipse fill="#136ed4" stroke="#000000" cx="264.5931" cy="-306" rx="27" ry="18"/>
<text text-anchor="middle" x="264.5931" y="-301.8" font-family="Times,serif" font-size="14.00" fill="#000000">add</text>
</g>
<!-- 4&#45;&gt;14 -->
<g id="edge13" class="edge">
<title>4&#45;&gt;14</title>
<path fill="none" stroke="#000000" d="M207.8625,-362.7307C217.7901,-352.803 230.9084,-339.6847 242.0294,-328.5637"/>
<polygon fill="#000000" stroke="#000000" points="244.7496,-330.7933 249.3458,-321.2473 239.7998,-325.8436 244.7496,-330.7933"/>
</g>
<!-- 6 -->
<g id="node7" class="node">
<title>6</title>
<ellipse fill="#136ed4" stroke="#000000" cx="120.5931" cy="-234" rx="27" ry="18"/>
<text text-anchor="middle" x="120.5931" y="-229.8" font-family="Times,serif" font-size="14.00" fill="#000000">mul</text>
</g>
<!-- 5&#45;&gt;6 -->
<g id="edge10" class="edge">
<title>5&#45;&gt;6</title>
<path fill="none" stroke="#000000" d="M177.3238,-290.7307C167.3961,-280.803 154.2778,-267.6847 143.1568,-256.5637"/>
<polygon fill="#000000" stroke="#000000" points="145.3864,-253.8436 135.8404,-249.2473 140.4367,-258.7933 145.3864,-253.8436"/>
</g>
<!-- 13 -->
<g id="node14" class="node">
<title>13</title>
<ellipse fill="#60a6f6" stroke="#000000" cx="192.5931" cy="-234" rx="27" ry="18"/>
<text text-anchor="middle" x="192.5931" y="-229.8" font-family="Times,serif" font-size="14.00" fill="#000000">X1</text>
</g>
<!-- 5&#45;&gt;13 -->
<g id="edge9" class="edge">
<title>5&#45;&gt;13</title>
<path fill="none" stroke="#000000" d="M192.5931,-287.8314C192.5931,-280.131 192.5931,-270.9743 192.5931,-262.4166"/>
<polygon fill="#000000" stroke="#000000" points="196.0932,-262.4132 192.5931,-252.4133 189.0932,-262.4133 196.0932,-262.4132"/>
</g>
<!-- 7 -->
<g id="node8" class="node">
<title>7</title>
<ellipse fill="#136ed4" stroke="#000000" cx="84.5931" cy="-162" rx="27" ry="18"/>
<text text-anchor="middle" x="84.5931" y="-157.8" font-family="Times,serif" font-size="14.00" fill="#000000">neg</text>
</g>
<!-- 6&#45;&gt;7 -->
<g id="edge8" class="edge">
<title>6&#45;&gt;7</title>
<path fill="none" stroke="#000000" d="M111.8785,-216.5708C107.6334,-208.0807 102.4395,-197.6929 97.7268,-188.2674"/>
<polygon fill="#000000" stroke="#000000" points="100.8301,-186.6477 93.2274,-179.2687 94.5691,-189.7782 100.8301,-186.6477"/>
</g>
<!-- 9 -->
<g id="node10" class="node">
<title>9</title>
<ellipse fill="#136ed4" stroke="#000000" cx="156.5931" cy="-162" rx="27" ry="18"/>
<text text-anchor="middle" x="156.5931" y="-157.8" font-family="Times,serif" font-size="14.00" fill="#000000">neg</text>
</g>
<!-- 6&#45;&gt;9 -->
<g id="edge7" class="edge">
<title>6&#45;&gt;9</title>
<path fill="none" stroke="#000000" d="M129.3077,-216.5708C133.5528,-208.0807 138.7467,-197.6929 143.4594,-188.2674"/>
<polygon fill="#000000" stroke="#000000" points="146.6171,-189.7782 147.9588,-179.2687 140.3561,-186.6477 146.6171,-189.7782"/>
</g>
<!-- 8 -->
<g id="node9" class="node">
<title>8</title>
<ellipse fill="#60a6f6" stroke="#000000" cx="84.5931" cy="-90" rx="27" ry="18"/>
<text text-anchor="middle" x="84.5931" y="-85.8" font-family="Times,serif" font-size="14.00" fill="#000000">X5</text>
</g>
<!-- 7&#45;&gt;8 -->
<g id="edge3" class="edge">
<title>7&#45;&gt;8</title>
<path fill="none" stroke="#000000" d="M84.5931,-143.8314C84.5931,-136.131 84.5931,-126.9743 84.5931,-118.4166"/>
<polygon fill="#000000" stroke="#000000" points="88.0932,-118.4132 84.5931,-108.4133 81.0932,-118.4133 88.0932,-118.4132"/>
</g>
<!-- 10 -->
<g id="node11" class="node">
<title>10</title>
<ellipse fill="#136ed4" stroke="#000000" cx="156.5931" cy="-90" rx="27" ry="18"/>
<text text-anchor="middle" x="156.5931" y="-85.8" font-family="Times,serif" font-size="14.00" fill="#000000">mul</text>
</g>
<!-- 9&#45;&gt;10 -->
<g id="edge6" class="edge">
<title>9&#45;&gt;10</title>
<path fill="none" stroke="#000000" d="M156.5931,-143.8314C156.5931,-136.131 156.5931,-126.9743 156.5931,-118.4166"/>
<polygon fill="#000000" stroke="#000000" points="160.0932,-118.4132 156.5931,-108.4133 153.0932,-118.4133 160.0932,-118.4132"/>
</g>
<!-- 11 -->
<g id="node12" class="node">
<title>11</title>
<ellipse fill="#60a6f6" stroke="#000000" cx="120.5931" cy="-18" rx="27" ry="18"/>
<text text-anchor="middle" x="120.5931" y="-13.8" font-family="Times,serif" font-size="14.00" fill="#000000">X1</text>
</g>
<!-- 10&#45;&gt;11 -->
<g id="edge5" class="edge">
<title>10&#45;&gt;11</title>
<path fill="none" stroke="#000000" d="M147.8785,-72.5708C143.6334,-64.0807 138.4395,-53.6929 133.7268,-44.2674"/>
<polygon fill="#000000" stroke="#000000" points="136.8301,-42.6477 129.2274,-35.2687 130.5691,-45.7782 136.8301,-42.6477"/>
</g>
<!-- 12 -->
<g id="node13" class="node">
<title>12</title>
<ellipse fill="#60a6f6" stroke="#000000" cx="192.5931" cy="-18" rx="27" ry="18"/>
<text text-anchor="middle" x="192.5931" y="-13.8" font-family="Times,serif" font-size="14.00" fill="#000000">X0</text>
</g>
<!-- 10&#45;&gt;12 -->
<g id="edge4" class="edge">
<title>10&#45;&gt;12</title>
<path fill="none" stroke="#000000" d="M165.3077,-72.5708C169.5528,-64.0807 174.7467,-53.6929 179.4594,-44.2674"/>
<polygon fill="#000000" stroke="#000000" points="182.6171,-45.7782 183.9588,-35.2687 176.3561,-42.6477 182.6171,-45.7782"/>
</g>
<!-- 15 -->
<g id="node16" class="node">
<title>15</title>
<ellipse fill="#60a6f6" stroke="#000000" cx="264.5931" cy="-234" rx="27" ry="18"/>
<text text-anchor="middle" x="264.5931" y="-229.8" font-family="Times,serif" font-size="14.00" fill="#000000">X5</text>
</g>
<!-- 14&#45;&gt;15 -->
<g id="edge12" class="edge">
<title>14&#45;&gt;15</title>
<path fill="none" stroke="#000000" d="M264.5931,-287.8314C264.5931,-280.131 264.5931,-270.9743 264.5931,-262.4166"/>
<polygon fill="#000000" stroke="#000000" points="268.0932,-262.4132 264.5931,-252.4133 261.0932,-262.4133 268.0932,-262.4132"/>
</g>
<!-- 16 -->
<g id="node17" class="node">
<title>16</title>
<ellipse fill="#60a6f6" stroke="#000000" cx="336.5931" cy="-234" rx="27" ry="18"/>
<text text-anchor="middle" x="336.5931" y="-229.8" font-family="Times,serif" font-size="14.00" fill="#000000">X2</text>
</g>
<!-- 14&#45;&gt;16 -->
<g id="edge11" class="edge">
<title>14&#45;&gt;16</title>
<path fill="none" stroke="#000000" d="M279.8625,-290.7307C289.7901,-280.803 302.9084,-267.6847 314.0294,-256.5637"/>
<polygon fill="#000000" stroke="#000000" points="316.7496,-258.7933 321.3458,-249.2473 311.7998,-253.8436 316.7496,-258.7933"/>
</g>
</g>
</svg>
