<?xml version="1.0" encoding="UTF-8" standalone="no"?>
<!DOCTYPE svg PUBLIC "-//W3C//DTD SVG 1.1//EN"
 "http://www.w3.org/Graphics/SVG/1.1/DTD/svg11.dtd">
<!-- Generated by graphviz version 2.40.1 (20161225.0304)
 -->
<!-- Title: myVAE Pages: 1 -->
<svg width="627pt" height="417pt"
 viewBox="0.00 0.00 627.00 417.00" xmlns="http://www.w3.org/2000/svg" xmlns:xlink="http://www.w3.org/1999/xlink">
<g id="graph0" class="graph" transform="scale(1 1) rotate(0) translate(4 413)">
<title>myVAE</title>
<polygon fill="#ffffff" stroke="transparent" points="-4,4 -4,-413 623,-413 623,4 -4,4"/>
<g id="clust1" class="cluster">
<title>cluster_input</title>
<polygon fill="none" stroke="#ffffff" points="0,-174 0,-251 81,-251 81,-174 0,-174"/>
<text text-anchor="middle" x="40.5" y="-234.4" font-family="Times,serif" font-size="14.00" fill="#000000">Input Layer</text>
</g>
<g id="clust10" class="cluster">
<title>cluster_output_hidden</title>
<polygon fill="none" stroke="#ffffff" points="410,-119 410,-401 508,-401 508,-119 410,-119"/>
<text text-anchor="middle" x="459" y="-384.4" font-family="Times,serif" font-size="14.00" fill="#000000">Hidden Layers</text>
</g>
<g id="clust2" class="cluster">
<title>cluster_input_hidden</title>
<polygon fill="none" stroke="#ffffff" points="101,-55 101,-337 199,-337 199,-55 101,-55"/>
<text text-anchor="middle" x="150" y="-320.4" font-family="Times,serif" font-size="14.00" fill="#000000">Hidden Layers</text>
</g>
<g id="clust5" class="cluster">
<title>cluster_feat_in</title>
<polygon fill="none" stroke="#ffffff" points="219,-264 219,-384 282,-384 282,-264 219,-264"/>
<text text-anchor="middle" x="250.5" y="-367.4" font-family="Times,serif" font-size="14.00" fill="#000000">Features</text>
</g>
<g id="clust6" class="cluster">
<title>cluster_mu</title>
<polygon fill="none" stroke="#ffffff" points="224,-136 224,-256 276,-256 276,-136 224,-136"/>
<text text-anchor="middle" x="250" y="-239.4" font-family="Times,serif" font-size="14.00" fill="#000000">mu</text>
</g>
<g id="clust7" class="cluster">
<title>cluster_logvar</title>
<polygon fill="none" stroke="#ffffff" points="224,-8 224,-128 276,-128 276,-8 224,-8"/>
<text text-anchor="middle" x="250" y="-111.4" font-family="Times,serif" font-size="14.00" fill="#000000">logvar</text>
</g>
<g id="clust8" class="cluster">
<title>cluster_feat_out</title>
<polygon fill="none" stroke="#ffffff" points="315,-264 315,-384 378,-384 378,-264 315,-264"/>
<text text-anchor="middle" x="346.5" y="-367.4" font-family="Times,serif" font-size="14.00" fill="#000000">Features</text>
</g>
<g id="clust9" class="cluster">
<title>cluster_z</title>
<polygon fill="none" stroke="#ffffff" points="302,-136 302,-256 390,-256 390,-136 302,-136"/>
<text text-anchor="middle" x="346" y="-239.4" font-family="Times,serif" font-size="14.00" fill="#000000">Latent Space</text>
</g>
<g id="clust13" class="cluster">
<title>cluster_output</title>
<polygon fill="none" stroke="#ffffff" points="528,-238 528,-315 619,-315 619,-238 528,-238"/>
<text text-anchor="middle" x="573.5" y="-298.4" font-family="Times,serif" font-size="14.00" fill="#000000">Output Layer</text>
</g>
<!-- in -->
<g id="node1" class="node">
<title>in</title>
<ellipse fill="none" stroke="#00ff00" cx="40" cy="-200" rx="18" ry="18"/>
</g>
<!-- h11 -->
<g id="node2" class="node">
<title>h11</title>
<ellipse fill="none" stroke="#0000ff" cx="150" cy="-286" rx="18" ry="18"/>
</g>
<!-- in&#45;&gt;h11 -->
<g id="edge1" class="edge">
<title>in&#45;&gt;h11</title>
<path fill="none" stroke="#000000" d="M54.3806,-211.243C74.1444,-226.6947 109.7189,-254.5075 131.4607,-271.5057"/>
<polygon fill="#000000" stroke="#000000" points="130.599,-273.0533 135.6159,-274.7542 132.7547,-270.2959 130.599,-273.0533"/>
</g>
<!-- h12 -->
<g id="node3" class="node">
<title>h12</title>
<ellipse fill="none" stroke="#0000ff" cx="150" cy="-124" rx="18" ry="18"/>
</g>
<!-- in&#45;&gt;h12 -->
<g id="edge2" class="edge">
<title>in&#45;&gt;h12</title>
<path fill="none" stroke="#000000" d="M54.8351,-189.7503C74.5172,-176.1518 109.288,-152.1283 130.9083,-137.1906"/>
<polygon fill="#000000" stroke="#000000" points="131.9297,-138.612 135.0486,-134.33 129.9402,-135.7324 131.9297,-138.612"/>
</g>
<!-- h13 -->
<g id="node4" class="node">
<title>h13</title>
<ellipse fill="none" stroke="#0000ff" cx="150" cy="-81" rx="18" ry="18"/>
</g>
<!-- in&#45;&gt;h13 -->
<g id="edge3" class="edge">
<title>in&#45;&gt;h13</title>
<path fill="none" stroke="#000000" d="M52.6184,-186.3492C72.6766,-164.6498 111.8169,-122.3072 133.8784,-98.4407"/>
<polygon fill="#000000" stroke="#000000" points="135.4199,-99.3512 137.5288,-94.4916 132.8497,-96.9754 135.4199,-99.3512"/>
</g>
<!-- h14 -->
<g id="node8" class="node">
<title>h14</title>
<ellipse fill="none" stroke="#0000ff" cx="150" cy="-243" rx="18" ry="18"/>
</g>
<!-- in&#45;&gt;h14 -->
<g id="edge4" class="edge">
<title>in&#45;&gt;h14</title>
<path fill="none" stroke="#000000" d="M57.1875,-206.7188C76.319,-214.1974 107.2814,-226.3009 128.1263,-234.4494"/>
<polygon fill="#000000" stroke="#000000" points="127.6392,-236.1379 132.9332,-236.3284 128.9135,-232.8781 127.6392,-236.1379"/>
</g>
<!-- h15 -->
<g id="node9" class="node">
<title>h15</title>
<ellipse fill="none" stroke="#0000ff" cx="150" cy="-200" rx="18" ry="18"/>
</g>
<!-- in&#45;&gt;h15 -->
<g id="edge5" class="edge">
<title>in&#45;&gt;h15</title>
<path fill="none" stroke="#000000" d="M58.1643,-200C76.8736,-200 106.1076,-200 126.5522,-200"/>
<polygon fill="#000000" stroke="#000000" points="126.8088,-201.7501 131.8088,-200 126.8087,-198.2501 126.8088,-201.7501"/>
</g>
<!-- f11 -->
<g id="node10" class="node">
<title>f11</title>
<ellipse fill="none" stroke="#0000ff" cx="250" cy="-333" rx="18" ry="18"/>
</g>
<!-- h11&#45;&gt;f11 -->
<g id="edge26" class="edge">
<title>h11&#45;&gt;f11</title>
<path fill="none" stroke="#000000" d="M166.513,-293.7611C183.5938,-301.7891 210.3242,-314.3524 228.9207,-323.0927"/>
<polygon fill="#000000" stroke="#000000" points="228.193,-324.6843 233.4625,-325.2274 229.6818,-321.5167 228.193,-324.6843"/>
</g>
<!-- f12 -->
<g id="node11" class="node">
<title>f12</title>
<ellipse fill="none" stroke="#0000ff" cx="250" cy="-290" rx="18" ry="18"/>
</g>
<!-- h11&#45;&gt;f12 -->
<g id="edge27" class="edge">
<title>h11&#45;&gt;f12</title>
<path fill="none" stroke="#000000" d="M168.3415,-286.7337C184.6932,-287.3877 208.7188,-288.3488 226.4794,-289.0592"/>
<polygon fill="#000000" stroke="#000000" points="226.7088,-290.8197 231.7747,-289.271 226.8487,-287.3225 226.7088,-290.8197"/>
</g>
<!-- mu1 -->
<g id="node12" class="node">
<title>mu1</title>
<ellipse fill="none" stroke="#0000ff" cx="250" cy="-205" rx="18" ry="18"/>
</g>
<!-- h11&#45;&gt;mu1 -->
<g id="edge6" class="edge">
<title>h11&#45;&gt;mu1</title>
<path fill="none" stroke="#000000" d="M164.3276,-274.3947C182.0009,-260.0793 212.0815,-235.714 231.4888,-219.9941"/>
<polygon fill="#000000" stroke="#000000" points="232.9152,-221.0908 235.699,-216.5838 230.7122,-218.3711 232.9152,-221.0908"/>
</g>
<!-- mu2 -->
<g id="node13" class="node">
<title>mu2</title>
<ellipse fill="none" stroke="#0000ff" cx="250" cy="-162" rx="18" ry="18"/>
</g>
<!-- h11&#45;&gt;mu2 -->
<g id="edge7" class="edge">
<title>h11&#45;&gt;mu2</title>
<path fill="none" stroke="#000000" d="M161.4713,-271.7756C179.706,-249.1645 215.288,-205.0428 235.344,-180.1735"/>
<polygon fill="#000000" stroke="#000000" points="236.8859,-181.0491 238.6625,-176.0585 234.1615,-178.852 236.8859,-181.0491"/>
</g>
<!-- logvar1 -->
<g id="node14" class="node">
<title>logvar1</title>
<ellipse fill="none" stroke="#0000ff" cx="250" cy="-77" rx="18" ry="18"/>
</g>
<!-- h11&#45;&gt;logvar1 -->
<g id="edge16" class="edge">
<title>h11&#45;&gt;logvar1</title>
<path fill="none" stroke="#000000" d="M157.8468,-269.6001C175.8466,-231.9806 220.0842,-139.524 239.9984,-97.9033"/>
<polygon fill="#000000" stroke="#000000" points="241.6101,-98.5893 242.1896,-93.3237 238.4529,-97.0787 241.6101,-98.5893"/>
</g>
<!-- logvar2 -->
<g id="node15" class="node">
<title>logvar2</title>
<ellipse fill="none" stroke="#0000ff" cx="250" cy="-34" rx="18" ry="18"/>
</g>
<!-- h11&#45;&gt;logvar2 -->
<g id="edge17" class="edge">
<title>h11&#45;&gt;logvar2</title>
<path fill="none" stroke="#000000" d="M156.7166,-269.0743C174.3289,-224.691 221.8316,-104.9843 241.3979,-55.6772"/>
<polygon fill="#000000" stroke="#000000" points="243.095,-56.145 243.3127,-50.8521 239.8418,-54.854 243.095,-56.145"/>
</g>
<!-- h12&#45;&gt;f11 -->
<g id="edge28" class="edge">
<title>h12&#45;&gt;f11</title>
<path fill="none" stroke="#000000" d="M157.8468,-140.3999C175.8466,-178.0194 220.0842,-270.476 239.9984,-312.0967"/>
<polygon fill="#000000" stroke="#000000" points="238.4529,-312.9213 242.1896,-316.6763 241.6101,-311.4107 238.4529,-312.9213"/>
</g>
<!-- h12&#45;&gt;f12 -->
<g id="edge29" class="edge">
<title>h12&#45;&gt;f12</title>
<path fill="none" stroke="#000000" d="M159.4078,-139.6169C177.648,-169.8957 217.796,-236.5413 237.9539,-270.0035"/>
<polygon fill="#000000" stroke="#000000" points="236.4653,-270.9238 240.5444,-274.3037 239.4633,-269.1177 236.4653,-270.9238"/>
</g>
<!-- h12&#45;&gt;mu1 -->
<g id="edge8" class="edge">
<title>h12&#45;&gt;mu1</title>
<path fill="none" stroke="#000000" d="M164.3276,-135.6053C182.0009,-149.9207 212.0815,-174.286 231.4888,-190.0059"/>
<polygon fill="#000000" stroke="#000000" points="230.7122,-191.6289 235.699,-193.4162 232.9152,-188.9092 230.7122,-191.6289"/>
</g>
<!-- h12&#45;&gt;mu2 -->
<g id="edge9" class="edge">
<title>h12&#45;&gt;mu2</title>
<path fill="none" stroke="#000000" d="M166.9636,-130.4462C183.7721,-136.8334 209.5964,-146.6466 227.9792,-153.6321"/>
<polygon fill="#000000" stroke="#000000" points="227.6576,-155.3819 232.9531,-155.5222 228.9009,-152.1102 227.6576,-155.3819"/>
</g>
<!-- h12&#45;&gt;logvar1 -->
<g id="edge18" class="edge">
<title>h12&#45;&gt;logvar1</title>
<path fill="none" stroke="#000000" d="M166.513,-116.2389C183.5938,-108.2109 210.3242,-95.6476 228.9207,-86.9073"/>
<polygon fill="#000000" stroke="#000000" points="229.6818,-88.4833 233.4625,-84.7726 228.193,-85.3157 229.6818,-88.4833"/>
</g>
<!-- h12&#45;&gt;logvar2 -->
<g id="edge19" class="edge">
<title>h12&#45;&gt;logvar2</title>
<path fill="none" stroke="#000000" d="M163.4864,-111.8622C181.3793,-95.7587 212.9891,-67.3098 232.6439,-49.6205"/>
<polygon fill="#000000" stroke="#000000" points="233.8621,-50.8786 236.4079,-46.2329 231.5207,-48.277 233.8621,-50.8786"/>
</g>
<!-- h13&#45;&gt;f11 -->
<g id="edge30" class="edge">
<title>h13&#45;&gt;f11</title>
<path fill="none" stroke="#000000" d="M156.7166,-97.9257C174.3289,-142.309 221.8316,-262.0157 241.3979,-311.3228"/>
<polygon fill="#000000" stroke="#000000" points="239.8418,-312.146 243.3127,-316.1479 243.095,-310.855 239.8418,-312.146"/>
</g>
<!-- h13&#45;&gt;f12 -->
<g id="edge31" class="edge">
<title>h13&#45;&gt;f12</title>
<path fill="none" stroke="#000000" d="M157.8468,-97.3999C175.8466,-135.0194 220.0842,-227.476 239.9984,-269.0967"/>
<polygon fill="#000000" stroke="#000000" points="238.4529,-269.9213 242.1896,-273.6763 241.6101,-268.4107 238.4529,-269.9213"/>
</g>
<!-- h13&#45;&gt;mu1 -->
<g id="edge10" class="edge">
<title>h13&#45;&gt;mu1</title>
<path fill="none" stroke="#000000" d="M161.4713,-95.2244C179.706,-117.8355 215.288,-161.9572 235.344,-186.8265"/>
<polygon fill="#000000" stroke="#000000" points="234.1615,-188.148 238.6625,-190.9415 236.8859,-185.9509 234.1615,-188.148"/>
</g>
<!-- h13&#45;&gt;mu2 -->
<g id="edge11" class="edge">
<title>h13&#45;&gt;mu2</title>
<path fill="none" stroke="#000000" d="M164.3276,-92.6053C182.0009,-106.9207 212.0815,-131.286 231.4888,-147.0059"/>
<polygon fill="#000000" stroke="#000000" points="230.7122,-148.6289 235.699,-150.4162 232.9152,-145.9092 230.7122,-148.6289"/>
</g>
<!-- h13&#45;&gt;logvar1 -->
<g id="edge20" class="edge">
<title>h13&#45;&gt;logvar1</title>
<path fill="none" stroke="#000000" d="M168.3415,-80.2663C184.6932,-79.6123 208.7188,-78.6512 226.4794,-77.9408"/>
<polygon fill="#000000" stroke="#000000" points="226.8487,-79.6775 231.7747,-77.729 226.7088,-76.1803 226.8487,-79.6775"/>
</g>
<!-- h13&#45;&gt;logvar2 -->
<g id="edge21" class="edge">
<title>h13&#45;&gt;logvar2</title>
<path fill="none" stroke="#000000" d="M166.513,-73.2389C183.5938,-65.2109 210.3242,-52.6476 228.9207,-43.9073"/>
<polygon fill="#000000" stroke="#000000" points="229.6818,-45.4833 233.4625,-41.7726 228.193,-42.3157 229.6818,-45.4833"/>
</g>
<!-- p11 -->
<g id="node5" class="node">
<title>p11</title>
<ellipse fill="#000000" stroke="#000000" cx="150" cy="-173" rx="1.8" ry="1.8"/>
</g>
<!-- p12 -->
<g id="node6" class="node">
<title>p12</title>
<ellipse fill="#000000" stroke="#000000" cx="150" cy="-162" rx="1.8" ry="1.8"/>
</g>
<!-- p13 -->
<g id="node7" class="node">
<title>p13</title>
<ellipse fill="#000000" stroke="#000000" cx="150" cy="-151" rx="1.8" ry="1.8"/>
</g>
<!-- h14&#45;&gt;f11 -->
<g id="edge32" class="edge">
<title>h14&#45;&gt;f11</title>
<path fill="none" stroke="#000000" d="M163.4864,-255.1378C181.3793,-271.2413 212.9891,-299.6902 232.6439,-317.3795"/>
<polygon fill="#000000" stroke="#000000" points="231.5207,-318.723 236.4079,-320.7671 233.8621,-316.1214 231.5207,-318.723"/>
</g>
<!-- h14&#45;&gt;f12 -->
<g id="edge33" class="edge">
<title>h14&#45;&gt;f12</title>
<path fill="none" stroke="#000000" d="M166.513,-250.7611C183.5938,-258.7891 210.3242,-271.3524 228.9207,-280.0927"/>
<polygon fill="#000000" stroke="#000000" points="228.193,-281.6843 233.4625,-282.2274 229.6818,-278.5167 228.193,-281.6843"/>
</g>
<!-- h14&#45;&gt;mu1 -->
<g id="edge12" class="edge">
<title>h14&#45;&gt;mu1</title>
<path fill="none" stroke="#000000" d="M166.9636,-236.5538C183.7721,-230.1666 209.5964,-220.3534 227.9792,-213.3679"/>
<polygon fill="#000000" stroke="#000000" points="228.9009,-214.8898 232.9531,-211.4778 227.6576,-211.6181 228.9009,-214.8898"/>
</g>
<!-- h14&#45;&gt;mu2 -->
<g id="edge13" class="edge">
<title>h14&#45;&gt;mu2</title>
<path fill="none" stroke="#000000" d="M164.3276,-231.3947C182.0009,-217.0793 212.0815,-192.714 231.4888,-176.9941"/>
<polygon fill="#000000" stroke="#000000" points="232.9152,-178.0908 235.699,-173.5838 230.7122,-175.3711 232.9152,-178.0908"/>
</g>
<!-- h14&#45;&gt;logvar1 -->
<g id="edge22" class="edge">
<title>h14&#45;&gt;logvar1</title>
<path fill="none" stroke="#000000" d="M159.4078,-227.3831C177.648,-197.1043 217.796,-130.4587 237.9539,-96.9965"/>
<polygon fill="#000000" stroke="#000000" points="239.4633,-97.8823 240.5444,-92.6963 236.4653,-96.0762 239.4633,-97.8823"/>
</g>
<!-- h14&#45;&gt;logvar2 -->
<g id="edge23" class="edge">
<title>h14&#45;&gt;logvar2</title>
<path fill="none" stroke="#000000" d="M157.8468,-226.6001C175.8466,-188.9806 220.0842,-96.524 239.9984,-54.9033"/>
<polygon fill="#000000" stroke="#000000" points="241.6101,-55.5893 242.1896,-50.3237 238.4529,-54.0787 241.6101,-55.5893"/>
</g>
<!-- h15&#45;&gt;f11 -->
<g id="edge34" class="edge">
<title>h15&#45;&gt;f11</title>
<path fill="none" stroke="#000000" d="M160.8921,-214.4865C179.1512,-238.771 215.9091,-287.6591 236.0388,-314.4316"/>
<polygon fill="#000000" stroke="#000000" points="234.7177,-315.5866 239.1213,-318.5313 237.5152,-313.4832 234.7177,-315.5866"/>
</g>
<!-- h15&#45;&gt;f12 -->
<g id="edge35" class="edge">
<title>h15&#45;&gt;f12</title>
<path fill="none" stroke="#000000" d="M163.4864,-212.1378C181.3793,-228.2413 212.9891,-256.6902 232.6439,-274.3795"/>
<polygon fill="#000000" stroke="#000000" points="231.5207,-275.723 236.4079,-277.7671 233.8621,-273.1214 231.5207,-275.723"/>
</g>
<!-- h15&#45;&gt;mu1 -->
<g id="edge14" class="edge">
<title>h15&#45;&gt;mu1</title>
<path fill="none" stroke="#000000" d="M168.3415,-200.9171C184.6932,-201.7347 208.7188,-202.9359 226.4794,-203.824"/>
<polygon fill="#000000" stroke="#000000" points="226.6936,-205.5868 231.7747,-204.0887 226.8684,-202.0911 226.6936,-205.5868"/>
</g>
<!-- h15&#45;&gt;mu2 -->
<g id="edge15" class="edge">
<title>h15&#45;&gt;mu2</title>
<path fill="none" stroke="#000000" d="M166.9636,-193.5538C183.7721,-187.1666 209.5964,-177.3534 227.9792,-170.3679"/>
<polygon fill="#000000" stroke="#000000" points="228.9009,-171.8898 232.9531,-168.4778 227.6576,-168.6181 228.9009,-171.8898"/>
</g>
<!-- h15&#45;&gt;logvar1 -->
<g id="edge24" class="edge">
<title>h15&#45;&gt;logvar1</title>
<path fill="none" stroke="#000000" d="M161.4713,-185.8903C179.609,-163.5809 214.91,-120.1607 235.0226,-95.4222"/>
<polygon fill="#000000" stroke="#000000" points="236.5582,-96.3076 238.3545,-91.324 233.8424,-94.0996 236.5582,-96.3076"/>
</g>
<!-- h15&#45;&gt;logvar2 -->
<g id="edge25" class="edge">
<title>h15&#45;&gt;logvar2</title>
<path fill="none" stroke="#000000" d="M159.4078,-184.3831C177.648,-154.1043 217.796,-87.4587 237.9539,-53.9965"/>
<polygon fill="#000000" stroke="#000000" points="239.4633,-54.8823 240.5444,-49.6963 236.4653,-53.0762 239.4633,-54.8823"/>
</g>
<!-- f21 -->
<g id="node16" class="node">
<title>f21</title>
<ellipse fill="none" stroke="#0000ff" cx="346" cy="-333" rx="18" ry="18"/>
</g>
<!-- f11&#45;&gt;f21 -->
<g id="edge36" class="edge">
<title>f11&#45;&gt;f21</title>
<path fill="none" stroke="#000000" stroke-dasharray="5,2" d="M268.0569,-333C285.1115,-333 310.5631,-333 327.6977,-333"/>
</g>
<!-- f22 -->
<g id="node17" class="node">
<title>f22</title>
<ellipse fill="none" stroke="#0000ff" cx="346" cy="-290" rx="18" ry="18"/>
</g>
<!-- f12&#45;&gt;f22 -->
<g id="edge37" class="edge">
<title>f12&#45;&gt;f22</title>
<path fill="none" stroke="#000000" stroke-dasharray="5,2" d="M268.0569,-290C285.1115,-290 310.5631,-290 327.6977,-290"/>
</g>
<!-- z1 -->
<g id="node18" class="node">
<title>z1</title>
<ellipse fill="none" stroke="#0000ff" cx="346" cy="-205" rx="18" ry="18"/>
</g>
<!-- mu1&#45;&gt;z1 -->
<g id="edge38" class="edge">
<title>mu1&#45;&gt;z1</title>
<path fill="none" stroke="#000000" d="M268.0569,-205C283.5126,-205 305.8647,-205 322.6731,-205"/>
<polygon fill="#000000" stroke="#000000" points="322.6977,-206.7501 327.6977,-205 322.6977,-203.2501 322.6977,-206.7501"/>
</g>
<!-- z2 -->
<g id="node19" class="node">
<title>z2</title>
<ellipse fill="none" stroke="#0000ff" cx="346" cy="-162" rx="18" ry="18"/>
</g>
<!-- mu2&#45;&gt;z2 -->
<g id="edge39" class="edge">
<title>mu2&#45;&gt;z2</title>
<path fill="none" stroke="#000000" d="M268.0569,-162C283.5126,-162 305.8647,-162 322.6731,-162"/>
<polygon fill="#000000" stroke="#000000" points="322.6977,-163.7501 327.6977,-162 322.6977,-160.2501 322.6977,-163.7501"/>
</g>
<!-- logvar1&#45;&gt;z1 -->
<g id="edge40" class="edge">
<title>logvar1&#45;&gt;z1</title>
<path fill="none" stroke="#000000" d="M261.0124,-91.6832C278.5178,-115.0237 312.6765,-160.5687 331.9302,-186.2403"/>
<polygon fill="#000000" stroke="#000000" points="330.716,-187.538 335.116,-190.488 333.516,-185.438 330.716,-187.538"/>
</g>
<!-- logvar2&#45;&gt;z2 -->
<g id="edge41" class="edge">
<title>logvar2&#45;&gt;z2</title>
<path fill="none" stroke="#000000" d="M261.0124,-48.6832C278.5178,-72.0237 312.6765,-117.5687 331.9302,-143.2403"/>
<polygon fill="#000000" stroke="#000000" points="330.716,-144.538 335.116,-147.488 333.516,-142.438 330.716,-144.538"/>
</g>
<!-- h21 -->
<g id="node20" class="node">
<title>h21</title>
<ellipse fill="none" stroke="#0000ff" cx="459" cy="-307" rx="18" ry="18"/>
</g>
<!-- f21&#45;&gt;h21 -->
<g id="edge52" class="edge">
<title>f21&#45;&gt;h21</title>
<path fill="none" stroke="#000000" d="M363.6563,-328.9375C383.1946,-324.4419 414.7447,-317.1826 436.153,-312.2568"/>
<polygon fill="#000000" stroke="#000000" points="436.6146,-313.9464 441.0948,-311.1198 435.8297,-310.5356 436.6146,-313.9464"/>
</g>
<!-- h22 -->
<g id="node21" class="node">
<title>h22</title>
<ellipse fill="none" stroke="#0000ff" cx="459" cy="-264" rx="18" ry="18"/>
</g>
<!-- f21&#45;&gt;h22 -->
<g id="edge53" class="edge">
<title>f21&#45;&gt;h22</title>
<path fill="none" stroke="#000000" d="M361.7122,-323.4058C381.8675,-311.0986 416.8509,-289.737 438.9184,-276.2622"/>
<polygon fill="#000000" stroke="#000000" points="440.0659,-277.612 443.4213,-273.5127 438.2419,-274.6249 440.0659,-277.612"/>
</g>
<!-- h23 -->
<g id="node22" class="node">
<title>h23</title>
<ellipse fill="none" stroke="#0000ff" cx="459" cy="-145" rx="18" ry="18"/>
</g>
<!-- f21&#45;&gt;h23 -->
<g id="edge54" class="edge">
<title>f21&#45;&gt;h23</title>
<path fill="none" stroke="#000000" d="M355.44,-317.2946C375.9306,-283.204 424.4529,-202.4766 447.0436,-164.8921"/>
<polygon fill="#000000" stroke="#000000" points="448.5904,-165.7155 449.6664,-160.5285 445.5906,-163.9124 448.5904,-165.7155"/>
</g>
<!-- h24 -->
<g id="node26" class="node">
<title>h24</title>
<ellipse fill="none" stroke="#0000ff" cx="459" cy="-350" rx="18" ry="18"/>
</g>
<!-- f21&#45;&gt;h24 -->
<g id="edge55" class="edge">
<title>f21&#45;&gt;h24</title>
<path fill="none" stroke="#000000" d="M363.9052,-335.6937C383.4111,-338.6282 414.6731,-343.3314 435.9873,-346.5379"/>
<polygon fill="#000000" stroke="#000000" points="435.9739,-348.3055 441.1786,-347.3189 436.4946,-344.8445 435.9739,-348.3055"/>
</g>
<!-- h25 -->
<g id="node27" class="node">
<title>h25</title>
<ellipse fill="none" stroke="#0000ff" cx="459" cy="-188" rx="18" ry="18"/>
</g>
<!-- f21&#45;&gt;h25 -->
<g id="edge56" class="edge">
<title>f21&#45;&gt;h25</title>
<path fill="none" stroke="#000000" d="M357.248,-318.5667C377.8925,-292.076 421.7987,-235.7362 444.5929,-206.487"/>
<polygon fill="#000000" stroke="#000000" points="446.1043,-207.3945 447.7975,-202.3749 443.3436,-205.243 446.1043,-207.3945"/>
</g>
<!-- f22&#45;&gt;h21 -->
<g id="edge57" class="edge">
<title>f22&#45;&gt;h21</title>
<path fill="none" stroke="#000000" d="M363.9052,-292.6937C383.4111,-295.6282 414.6731,-300.3314 435.9873,-303.5379"/>
<polygon fill="#000000" stroke="#000000" points="435.9739,-305.3055 441.1786,-304.3189 436.4946,-301.8445 435.9739,-305.3055"/>
</g>
<!-- f22&#45;&gt;h22 -->
<g id="edge58" class="edge">
<title>f22&#45;&gt;h22</title>
<path fill="none" stroke="#000000" d="M363.6563,-285.9375C383.1946,-281.4419 414.7447,-274.1826 436.153,-269.2568"/>
<polygon fill="#000000" stroke="#000000" points="436.6146,-270.9464 441.0948,-268.1198 435.8297,-267.5356 436.6146,-270.9464"/>
</g>
<!-- f22&#45;&gt;h23 -->
<g id="edge59" class="edge">
<title>f22&#45;&gt;h23</title>
<path fill="none" stroke="#000000" d="M357.248,-275.5667C377.8925,-249.076 421.7987,-192.7362 444.5929,-163.487"/>
<polygon fill="#000000" stroke="#000000" points="446.1043,-164.3945 447.7975,-159.3749 443.3436,-162.243 446.1043,-164.3945"/>
</g>
<!-- f22&#45;&gt;h24 -->
<g id="edge60" class="edge">
<title>f22&#45;&gt;h24</title>
<path fill="none" stroke="#000000" d="M362.1901,-298.5965C382.2449,-309.2451 416.4379,-327.4007 438.3581,-339.0397"/>
<polygon fill="#000000" stroke="#000000" points="437.6031,-340.6202 442.8399,-341.4194 439.2445,-337.5289 437.6031,-340.6202"/>
</g>
<!-- f22&#45;&gt;h25 -->
<g id="edge61" class="edge">
<title>f22&#45;&gt;h25</title>
<path fill="none" stroke="#000000" d="M359.4063,-277.8987C379.9648,-259.3415 419.2647,-223.8673 441.8635,-203.4683"/>
<polygon fill="#000000" stroke="#000000" points="443.0721,-204.7349 445.6111,-200.0855 440.7269,-202.1368 443.0721,-204.7349"/>
</g>
<!-- z1&#45;&gt;h21 -->
<g id="edge42" class="edge">
<title>z1&#45;&gt;h21</title>
<path fill="none" stroke="#000000" d="M359.4063,-217.1013C379.9648,-235.6585 419.2647,-271.1327 441.8635,-291.5317"/>
<polygon fill="#000000" stroke="#000000" points="440.7269,-292.8632 445.6111,-294.9145 443.0721,-290.2651 440.7269,-292.8632"/>
</g>
<!-- z1&#45;&gt;h22 -->
<g id="edge43" class="edge">
<title>z1&#45;&gt;h22</title>
<path fill="none" stroke="#000000" d="M362.1901,-213.4533C382.2449,-223.9243 416.4379,-241.7773 438.3581,-253.2224"/>
<polygon fill="#000000" stroke="#000000" points="437.5977,-254.7995 442.8399,-255.5624 439.2176,-251.6969 437.5977,-254.7995"/>
</g>
<!-- z1&#45;&gt;h23 -->
<g id="edge44" class="edge">
<title>z1&#45;&gt;h23</title>
<path fill="none" stroke="#000000" d="M362.1901,-196.4035C382.2449,-185.7549 416.4379,-167.5993 438.3581,-155.9603"/>
<polygon fill="#000000" stroke="#000000" points="439.2445,-157.4711 442.8399,-153.5806 437.6031,-154.3798 439.2445,-157.4711"/>
</g>
<!-- z1&#45;&gt;h24 -->
<g id="edge45" class="edge">
<title>z1&#45;&gt;h24</title>
<path fill="none" stroke="#000000" d="M357.248,-219.4333C377.8925,-245.924 421.7987,-302.2638 444.5929,-331.513"/>
<polygon fill="#000000" stroke="#000000" points="443.3436,-332.757 447.7975,-335.6251 446.1043,-330.6055 443.3436,-332.757"/>
</g>
<!-- z1&#45;&gt;h25 -->
<g id="edge46" class="edge">
<title>z1&#45;&gt;h25</title>
<path fill="none" stroke="#000000" d="M363.9052,-202.3063C383.4111,-199.3718 414.6731,-194.6686 435.9873,-191.4621"/>
<polygon fill="#000000" stroke="#000000" points="436.4946,-193.1555 441.1786,-190.6811 435.9739,-189.6945 436.4946,-193.1555"/>
</g>
<!-- z2&#45;&gt;h21 -->
<g id="edge47" class="edge">
<title>z2&#45;&gt;h21</title>
<path fill="none" stroke="#000000" d="M357.248,-176.4333C377.8925,-202.924 421.7987,-259.2638 444.5929,-288.513"/>
<polygon fill="#000000" stroke="#000000" points="443.3436,-289.757 447.7975,-292.6251 446.1043,-287.6055 443.3436,-289.757"/>
</g>
<!-- z2&#45;&gt;h22 -->
<g id="edge48" class="edge">
<title>z2&#45;&gt;h22</title>
<path fill="none" stroke="#000000" d="M359.4063,-174.1013C379.9648,-192.6585 419.2647,-228.1327 441.8635,-248.5317"/>
<polygon fill="#000000" stroke="#000000" points="440.7269,-249.8632 445.6111,-251.9145 443.0721,-247.2651 440.7269,-249.8632"/>
</g>
<!-- z2&#45;&gt;h23 -->
<g id="edge49" class="edge">
<title>z2&#45;&gt;h23</title>
<path fill="none" stroke="#000000" d="M363.9052,-159.3063C383.4111,-156.3718 414.6731,-151.6686 435.9873,-148.4621"/>
<polygon fill="#000000" stroke="#000000" points="436.4946,-150.1555 441.1786,-147.6811 435.9739,-146.6945 436.4946,-150.1555"/>
</g>
<!-- z2&#45;&gt;h24 -->
<g id="edge50" class="edge">
<title>z2&#45;&gt;h24</title>
<path fill="none" stroke="#000000" d="M355.44,-177.7054C375.9306,-211.796 424.4529,-292.5234 447.0436,-330.1079"/>
<polygon fill="#000000" stroke="#000000" points="445.5906,-331.0876 449.6664,-334.4715 448.5904,-329.2845 445.5906,-331.0876"/>
</g>
<!-- z2&#45;&gt;h25 -->
<g id="edge51" class="edge">
<title>z2&#45;&gt;h25</title>
<path fill="none" stroke="#000000" d="M363.6563,-166.0625C383.1946,-170.5581 414.7447,-177.8174 436.153,-182.7432"/>
<polygon fill="#000000" stroke="#000000" points="435.8297,-184.4644 441.0948,-183.8802 436.6146,-181.0536 435.8297,-184.4644"/>
</g>
<!-- out -->
<g id="node28" class="node">
<title>out</title>
<ellipse fill="none" stroke="#ff0000" cx="573" cy="-264" rx="18" ry="18"/>
</g>
<!-- h21&#45;&gt;out -->
<g id="edge62" class="edge">
<title>h21&#45;&gt;out</title>
<path fill="none" stroke="#000000" d="M476.3141,-300.4692C496.3502,-292.9117 529.374,-280.4554 551.1574,-272.2389"/>
<polygon fill="#000000" stroke="#000000" points="551.8358,-273.8534 555.8964,-270.4513 550.6005,-270.5786 551.8358,-273.8534"/>
</g>
<!-- h22&#45;&gt;out -->
<g id="edge63" class="edge">
<title>h22&#45;&gt;out</title>
<path fill="none" stroke="#000000" d="M477.0636,-264C496.6264,-264 527.9102,-264 549.4031,-264"/>
<polygon fill="#000000" stroke="#000000" points="549.6434,-265.7501 554.6434,-264 549.6433,-262.2501 549.6434,-265.7501"/>
</g>
<!-- h23&#45;&gt;out -->
<g id="edge64" class="edge">
<title>h23&#45;&gt;out</title>
<path fill="none" stroke="#000000" d="M471.6356,-158.1898C492.4359,-179.9024 533.8637,-223.1472 556.7927,-247.0819"/>
<polygon fill="#000000" stroke="#000000" points="555.5852,-248.3512 560.3078,-250.7512 558.1127,-245.93 555.5852,-248.3512"/>
</g>
<!-- p21 -->
<g id="node23" class="node">
<title>p21</title>
<ellipse fill="#000000" stroke="#000000" cx="459" cy="-237" rx="1.8" ry="1.8"/>
</g>
<!-- p22 -->
<g id="node24" class="node">
<title>p22</title>
<ellipse fill="#000000" stroke="#000000" cx="459" cy="-226" rx="1.8" ry="1.8"/>
</g>
<!-- p23 -->
<g id="node25" class="node">
<title>p23</title>
<ellipse fill="#000000" stroke="#000000" cx="459" cy="-215" rx="1.8" ry="1.8"/>
</g>
<!-- h24&#45;&gt;out -->
<g id="edge65" class="edge">
<title>h24&#45;&gt;out</title>
<path fill="none" stroke="#000000" d="M473.4382,-339.108C493.9689,-323.6199 531.6154,-295.2199 554.2707,-278.1291"/>
<polygon fill="#000000" stroke="#000000" points="555.3813,-279.4835 558.319,-275.0752 553.2734,-276.6893 555.3813,-279.4835"/>
</g>
<!-- h25&#45;&gt;out -->
<g id="edge66" class="edge">
<title>h25&#45;&gt;out</title>
<path fill="none" stroke="#000000" d="M474.3745,-198.2497C494.8863,-211.9242 531.2107,-236.1405 553.5883,-251.0589"/>
<polygon fill="#000000" stroke="#000000" points="552.738,-252.5952 557.869,-253.9127 554.6795,-249.6831 552.738,-252.5952"/>
</g>
</g>
</svg>
