<?xml version="1.0" encoding="UTF-8" standalone="no"?>
<!DOCTYPE svg PUBLIC "-//W3C//DTD SVG 1.1//EN"
 "http://www.w3.org/Graphics/SVG/1.1/DTD/svg11.dtd">
<!-- Generated by graphviz version 2.40.1 (20161225.0304)
 -->
<!-- Title: dependency Pages: 1 -->
<svg width="399pt" height="260pt"
 viewBox="0.00 0.00 399.38 260.00" xmlns="http://www.w3.org/2000/svg" xmlns:xlink="http://www.w3.org/1999/xlink">
<g id="graph0" class="graph" transform="scale(1 1) rotate(0) translate(4 256)">
<title>dependency</title>
<polygon fill="#ffffff" stroke="transparent" points="-4,4 -4,-256 395.3778,-256 395.3778,4 -4,4"/>
<!-- Preperation -->
<g id="node1" class="node">
<title>Preperation</title>
<ellipse fill="none" stroke="#000000" cx="55.5473" cy="-126" rx="55.5946" ry="18"/>
<text text-anchor="middle" x="55.5473" y="-121.8" font-family="Times,serif" font-size="14.00" fill="#000000">Preperation</text>
</g>
<!-- Task 1 -->
<g id="node2" class="node">
<title>Task 1</title>
<ellipse fill="none" stroke="#000000" cx="203.4579" cy="-234" rx="37.0989" ry="18"/>
<text text-anchor="middle" x="203.4579" y="-229.8" font-family="Times,serif" font-size="14.00" fill="#000000">Task 1</text>
</g>
<!-- Preperation&#45;&gt;Task 1 -->
<g id="edge1" class="edge">
<title>Preperation&#45;&gt;Task 1</title>
<path fill="none" stroke="#000000" d="M72.2476,-143.384C89.7516,-160.9484 118.6194,-188.1176 147.0946,-207 152.9271,-210.8676 159.3985,-214.5003 165.8167,-217.7709"/>
<polygon fill="#000000" stroke="#000000" points="164.5778,-221.0604 175.1012,-222.2888 167.6408,-214.7661 164.5778,-221.0604"/>
</g>
<!-- Task 2 -->
<g id="node3" class="node">
<title>Task 2</title>
<ellipse fill="none" stroke="#000000" cx="203.4579" cy="-180" rx="37.0989" ry="18"/>
<text text-anchor="middle" x="203.4579" y="-175.8" font-family="Times,serif" font-size="14.00" fill="#000000">Task 2</text>
</g>
<!-- Preperation&#45;&gt;Task 2 -->
<g id="edge2" class="edge">
<title>Preperation&#45;&gt;Task 2</title>
<path fill="none" stroke="#000000" d="M92.4898,-139.4872C114.2545,-147.4331 141.7816,-157.4829 163.9739,-165.585"/>
<polygon fill="#000000" stroke="#000000" points="162.8458,-168.899 173.4397,-169.0408 165.2464,-162.3235 162.8458,-168.899"/>
</g>
<!-- Task 3 -->
<g id="node4" class="node">
<title>Task 3</title>
<ellipse fill="none" stroke="#000000" cx="203.4579" cy="-126" rx="37.0989" ry="18"/>
<text text-anchor="middle" x="203.4579" y="-121.8" font-family="Times,serif" font-size="14.00" fill="#000000">Task 3</text>
</g>
<!-- Preperation&#45;&gt;Task 3 -->
<g id="edge3" class="edge">
<title>Preperation&#45;&gt;Task 3</title>
<path fill="none" stroke="#000000" d="M111.466,-126C126.2118,-126 141.9766,-126 156.2152,-126"/>
<polygon fill="#000000" stroke="#000000" points="156.2771,-129.5001 166.277,-126 156.277,-122.5001 156.2771,-129.5001"/>
</g>
<!-- ... -->
<g id="node5" class="node">
<title>...</title>
<ellipse fill="none" stroke="#000000" cx="203.4579" cy="-72" rx="27" ry="18"/>
<text text-anchor="middle" x="203.4579" y="-67.8" font-family="Times,serif" font-size="14.00" fill="#000000">...</text>
</g>
<!-- Preperation&#45;&gt;... -->
<g id="edge4" class="edge">
<title>Preperation&#45;&gt;...</title>
<path fill="none" stroke="#000000" d="M92.4898,-112.5128C116.1925,-103.8593 146.7293,-92.7108 169.7673,-84.3"/>
<polygon fill="#000000" stroke="#000000" points="171.2626,-87.4801 179.4558,-80.7628 168.8619,-80.9046 171.2626,-87.4801"/>
</g>
<!-- Task 10086 -->
<g id="node6" class="node">
<title>Task 10086</title>
<ellipse fill="none" stroke="#000000" cx="203.4579" cy="-18" rx="56.2269" ry="18"/>
<text text-anchor="middle" x="203.4579" y="-13.8" font-family="Times,serif" font-size="14.00" fill="#000000">Task 10086</text>
</g>
<!-- Preperation&#45;&gt;Task 10086 -->
<g id="edge5" class="edge">
<title>Preperation&#45;&gt;Task 10086</title>
<path fill="none" stroke="#000000" d="M72.2476,-108.616C89.7516,-91.0516 118.6194,-63.8824 147.0946,-45 151.1751,-42.2942 155.5683,-39.7033 160.0372,-37.271"/>
<polygon fill="#000000" stroke="#000000" points="161.9636,-40.2153 169.2406,-32.515 158.7499,-33.9966 161.9636,-40.2153"/>
</g>
<!-- Job Done -->
<g id="node7" class="node">
<title>Job Done</title>
<ellipse fill="none" stroke="#000000" cx="343.5995" cy="-126" rx="47.5576" ry="18"/>
<text text-anchor="middle" x="343.5995" y="-121.8" font-family="Times,serif" font-size="14.00" fill="#000000">Job Done</text>
</g>
<!-- Task 1&#45;&gt;Job Done -->
<g id="edge6" class="edge">
<title>Task 1&#45;&gt;Job Done</title>
<path fill="none" stroke="#000000" d="M232.2551,-222.3778C241.4151,-218.1203 251.3587,-212.8849 259.8212,-207 283.1555,-190.7731 306.1091,-167.963 322.0727,-150.6817"/>
<polygon fill="#000000" stroke="#000000" points="324.7591,-152.9297 328.8918,-143.1741 319.5774,-148.2233 324.7591,-152.9297"/>
</g>
<!-- Task 2&#45;&gt;Job Done -->
<g id="edge7" class="edge">
<title>Task 2&#45;&gt;Job Done</title>
<path fill="none" stroke="#000000" d="M232.4953,-168.8112C252.1896,-161.2225 278.5611,-151.0609 300.6692,-142.5421"/>
<polygon fill="#000000" stroke="#000000" points="302.0957,-145.7434 310.1684,-138.8818 299.5787,-139.2115 302.0957,-145.7434"/>
</g>
<!-- Task 3&#45;&gt;Job Done -->
<g id="edge8" class="edge">
<title>Task 3&#45;&gt;Job Done</title>
<path fill="none" stroke="#000000" d="M240.6453,-126C254.3494,-126 270.2237,-126 285.3424,-126"/>
<polygon fill="#000000" stroke="#000000" points="285.6525,-129.5001 295.6525,-126 285.6525,-122.5001 285.6525,-129.5001"/>
</g>
<!-- ...&#45;&gt;Job Done -->
<g id="edge9" class="edge">
<title>...&#45;&gt;Job Done</title>
<path fill="none" stroke="#000000" d="M226.9145,-81.0384C247.0007,-88.7781 276.4396,-100.1216 300.7217,-109.4781"/>
<polygon fill="#000000" stroke="#000000" points="299.4953,-112.7564 310.085,-113.086 302.0122,-106.2245 299.4953,-112.7564"/>
</g>
<!-- Task 10086&#45;&gt;Job Done -->
<g id="edge10" class="edge">
<title>Task 10086&#45;&gt;Job Done</title>
<path fill="none" stroke="#000000" d="M237.827,-32.2914C245.3333,-35.9998 253.0512,-40.2921 259.8212,-45 283.1555,-61.2269 306.1091,-84.037 322.0727,-101.3183"/>
<polygon fill="#000000" stroke="#000000" points="319.5774,-103.7767 328.8918,-108.8259 324.7591,-99.0703 319.5774,-103.7767"/>
</g>
</g>
</svg>
