<?xml version="1.0" encoding="UTF-8" standalone="no"?>
<!DOCTYPE svg PUBLIC "-//W3C//DTD SVG 1.1//EN"
 "http://www.w3.org/Graphics/SVG/1.1/DTD/svg11.dtd">
<!-- Generated by graphviz version 2.40.1 (20161225.0304)
 -->
<!-- Title: tradC2P Pages: 1 -->
<svg width="292pt" height="306pt"
 viewBox="0.00 0.00 292.00 306.00" xmlns="http://www.w3.org/2000/svg" xmlns:xlink="http://www.w3.org/1999/xlink">
<g id="graph0" class="graph" transform="scale(1 1) rotate(0) translate(4 302)">
<title>tradC2P</title>
<polygon fill="#ffffff" stroke="transparent" points="-4,4 -4,-302 288,-302 288,4 -4,4"/>
<g id="clust1" class="cluster">
<title>cluster_input</title>
<polygon fill="none" stroke="#ffffff" points="0,-127 0,-204 81,-204 81,-127 0,-127"/>
<text text-anchor="middle" x="40.5" y="-187.4" font-family="Times,serif" font-size="14.00" fill="#000000">Input Layer</text>
</g>
<g id="clust2" class="cluster">
<title>cluster_input_hidden</title>
<polygon fill="none" stroke="#ffffff" points="101,-8 101,-290 199,-290 199,-8 101,-8"/>
<text text-anchor="middle" x="150" y="-273.4" font-family="Times,serif" font-size="14.00" fill="#000000">Hidden Layers</text>
</g>
<g id="clust5" class="cluster">
<title>cluster_feat_in</title>
<polygon fill="none" stroke="#ffffff" points="219,-105 219,-225 282,-225 282,-105 219,-105"/>
<text text-anchor="middle" x="250.5" y="-208.4" font-family="Times,serif" font-size="14.00" fill="#000000">Features</text>
</g>
<!-- in -->
<g id="node1" class="node">
<title>in</title>
<ellipse fill="none" stroke="#00ff00" cx="40" cy="-153" rx="18" ry="18"/>
</g>
<!-- h11 -->
<g id="node2" class="node">
<title>h11</title>
<ellipse fill="none" stroke="#0000ff" cx="150" cy="-196" rx="18" ry="18"/>
</g>
<!-- in&#45;&gt;h11 -->
<g id="edge1" class="edge">
<title>in&#45;&gt;h11</title>
<path fill="none" stroke="#000000" d="M57.1875,-159.7188C76.319,-167.1974 107.2814,-179.3009 128.1263,-187.4494"/>
<polygon fill="#000000" stroke="#000000" points="127.6392,-189.1379 132.9332,-189.3284 128.9135,-185.8781 127.6392,-189.1379"/>
</g>
<!-- h12 -->
<g id="node3" class="node">
<title>h12</title>
<ellipse fill="none" stroke="#0000ff" cx="150" cy="-153" rx="18" ry="18"/>
</g>
<!-- in&#45;&gt;h12 -->
<g id="edge2" class="edge">
<title>in&#45;&gt;h12</title>
<path fill="none" stroke="#000000" d="M58.1643,-153C76.8736,-153 106.1076,-153 126.5522,-153"/>
<polygon fill="#000000" stroke="#000000" points="126.8088,-154.7501 131.8088,-153 126.8087,-151.2501 126.8088,-154.7501"/>
</g>
<!-- h13 -->
<g id="node4" class="node">
<title>h13</title>
<ellipse fill="none" stroke="#0000ff" cx="150" cy="-239" rx="18" ry="18"/>
</g>
<!-- in&#45;&gt;h13 -->
<g id="edge3" class="edge">
<title>in&#45;&gt;h13</title>
<path fill="none" stroke="#000000" d="M54.3806,-164.243C74.1444,-179.6947 109.7189,-207.5075 131.4607,-224.5057"/>
<polygon fill="#000000" stroke="#000000" points="130.599,-226.0533 135.6159,-227.7542 132.7547,-223.2959 130.599,-226.0533"/>
</g>
<!-- h14 -->
<g id="node8" class="node">
<title>h14</title>
<ellipse fill="none" stroke="#0000ff" cx="150" cy="-77" rx="18" ry="18"/>
</g>
<!-- in&#45;&gt;h14 -->
<g id="edge4" class="edge">
<title>in&#45;&gt;h14</title>
<path fill="none" stroke="#000000" d="M54.8351,-142.7503C74.5172,-129.1518 109.288,-105.1283 130.9083,-90.1906"/>
<polygon fill="#000000" stroke="#000000" points="131.9297,-91.612 135.0486,-87.33 129.9402,-88.7324 131.9297,-91.612"/>
</g>
<!-- h15 -->
<g id="node9" class="node">
<title>h15</title>
<ellipse fill="none" stroke="#0000ff" cx="150" cy="-34" rx="18" ry="18"/>
</g>
<!-- in&#45;&gt;h15 -->
<g id="edge5" class="edge">
<title>in&#45;&gt;h15</title>
<path fill="none" stroke="#000000" d="M52.6184,-139.3492C72.6766,-117.6498 111.8169,-75.3072 133.8784,-51.4407"/>
<polygon fill="#000000" stroke="#000000" points="135.4199,-52.3512 137.5288,-47.4916 132.8497,-49.9754 135.4199,-52.3512"/>
</g>
<!-- f11 -->
<g id="node10" class="node">
<title>f11</title>
<ellipse fill="none" stroke="#ff0000" cx="250" cy="-174" rx="18" ry="18"/>
</g>
<!-- h11&#45;&gt;f11 -->
<g id="edge6" class="edge">
<title>h11&#45;&gt;f11</title>
<path fill="none" stroke="#000000" d="M167.878,-192.0668C184.5157,-188.4065 209.3824,-182.9359 227.3916,-178.9738"/>
<polygon fill="#000000" stroke="#000000" points="227.7696,-180.6826 232.2768,-177.8991 227.0175,-177.2644 227.7696,-180.6826"/>
</g>
<!-- f12 -->
<g id="node11" class="node">
<title>f12</title>
<ellipse fill="none" stroke="#ff0000" cx="250" cy="-131" rx="18" ry="18"/>
</g>
<!-- h11&#45;&gt;f12 -->
<g id="edge7" class="edge">
<title>h11&#45;&gt;f12</title>
<path fill="none" stroke="#000000" d="M165.1878,-186.1279C182.5149,-174.8653 210.9149,-156.4053 230.0236,-143.9846"/>
<polygon fill="#000000" stroke="#000000" points="231.4307,-145.1573 234.6692,-140.965 229.5232,-142.2227 231.4307,-145.1573"/>
</g>
<!-- h12&#45;&gt;f11 -->
<g id="edge8" class="edge">
<title>h12&#45;&gt;f11</title>
<path fill="none" stroke="#000000" d="M167.878,-156.7544C184.3735,-160.2184 208.9579,-165.3812 226.9284,-169.155"/>
<polygon fill="#000000" stroke="#000000" points="227.0238,-170.9631 232.2768,-170.2781 227.7432,-167.5378 227.0238,-170.9631"/>
</g>
<!-- h12&#45;&gt;f12 -->
<g id="edge9" class="edge">
<title>h12&#45;&gt;f12</title>
<path fill="none" stroke="#000000" d="M167.878,-149.0668C184.5157,-145.4065 209.3824,-139.9359 227.3916,-135.9738"/>
<polygon fill="#000000" stroke="#000000" points="227.7696,-137.6826 232.2768,-134.8991 227.0175,-134.2644 227.7696,-137.6826"/>
</g>
<!-- h13&#45;&gt;f11 -->
<g id="edge10" class="edge">
<title>h13&#45;&gt;f11</title>
<path fill="none" stroke="#000000" d="M165.1878,-229.1279C182.5149,-217.8653 210.9149,-199.4053 230.0236,-186.9846"/>
<polygon fill="#000000" stroke="#000000" points="231.4307,-188.1573 234.6692,-183.965 229.5232,-185.2227 231.4307,-188.1573"/>
</g>
<!-- h13&#45;&gt;f12 -->
<g id="edge11" class="edge">
<title>h13&#45;&gt;f12</title>
<path fill="none" stroke="#000000" d="M162.262,-225.7571C180.3301,-206.2435 214.1168,-169.7539 234.0783,-148.1955"/>
<polygon fill="#000000" stroke="#000000" points="235.5248,-149.209 237.6377,-144.3512 232.9566,-146.8311 235.5248,-149.209"/>
</g>
<!-- p11 -->
<g id="node5" class="node">
<title>p11</title>
<ellipse fill="#000000" stroke="#000000" cx="150" cy="-126" rx="1.8" ry="1.8"/>
</g>
<!-- p12 -->
<g id="node6" class="node">
<title>p12</title>
<ellipse fill="#000000" stroke="#000000" cx="150" cy="-115" rx="1.8" ry="1.8"/>
</g>
<!-- p13 -->
<g id="node7" class="node">
<title>p13</title>
<ellipse fill="#000000" stroke="#000000" cx="150" cy="-104" rx="1.8" ry="1.8"/>
</g>
<!-- h14&#45;&gt;f11 -->
<g id="edge12" class="edge">
<title>h14&#45;&gt;f11</title>
<path fill="none" stroke="#000000" d="M163.0733,-89.6811C181.0404,-107.1092 213.3808,-138.4794 233.1461,-157.6517"/>
<polygon fill="#000000" stroke="#000000" points="232.1161,-159.0907 236.9235,-161.3158 234.553,-156.5784 232.1161,-159.0907"/>
</g>
<!-- h14&#45;&gt;f12 -->
<g id="edge13" class="edge">
<title>h14&#45;&gt;f12</title>
<path fill="none" stroke="#000000" d="M166.0667,-85.676C183.2699,-94.9658 210.6205,-109.7351 229.3959,-119.8738"/>
<polygon fill="#000000" stroke="#000000" points="228.7421,-121.5095 233.9731,-122.3455 230.4051,-118.4299 228.7421,-121.5095"/>
</g>
<!-- h15&#45;&gt;f11 -->
<g id="edge14" class="edge">
<title>h15&#45;&gt;f11</title>
<path fill="none" stroke="#000000" d="M160.5127,-48.7178C178.6957,-74.1739 216.0069,-126.4097 236.2332,-154.7265"/>
<polygon fill="#000000" stroke="#000000" points="234.9969,-156.0065 239.3271,-159.058 237.8449,-153.9721 234.9969,-156.0065"/>
</g>
<!-- h15&#45;&gt;f12 -->
<g id="edge15" class="edge">
<title>h15&#45;&gt;f12</title>
<path fill="none" stroke="#000000" d="M163.0733,-46.6811C181.0404,-64.1092 213.3808,-95.4794 233.1461,-114.6517"/>
<polygon fill="#000000" stroke="#000000" points="232.1161,-116.0907 236.9235,-118.3158 234.553,-113.5784 232.1161,-116.0907"/>
</g>
</g>
</svg>
