<?xml version="1.0" encoding="UTF-8" standalone="no"?>
<!DOCTYPE svg PUBLIC "-//W3C//DTD SVG 1.1//EN"
 "http://www.w3.org/Graphics/SVG/1.1/DTD/svg11.dtd">
<!-- Generated by graphviz version 2.40.1 (20161225.0304)
 -->
<!-- Title: telegram Pages: 1 -->
<svg width="284pt" height="190pt"
 viewBox="0.00 0.00 284.00 190.00" xmlns="http://www.w3.org/2000/svg" xmlns:xlink="http://www.w3.org/1999/xlink">
<g id="graph0" class="graph" transform="scale(1 1) rotate(0) translate(4 186)">
<title>telegram</title>
<polygon fill="#ffffff" stroke="transparent" points="-4,4 -4,-186 280,-186 280,4 -4,4"/>
<!-- character -->
<g id="node1" class="node">
<title>character</title>
<polygon fill="none" stroke="#000000" points="167,-182 109,-182 109,-146 167,-146 167,-182"/>
<text text-anchor="middle" x="138" y="-159.8" font-family="Times,serif" font-size="14.00" fill="#000000">0x7231</text>
</g>
<!-- char_expanded -->
<g id="node2" class="node">
<title>char_expanded</title>
<polygon fill="none" stroke="#000000" points="62,-73.5 62,-109.5 214,-109.5 214,-73.5 62,-73.5"/>
<text text-anchor="start" x="74" y="-86.9" font-family="Times,serif" font-size="14.00" fill="#000000">0111</text>
<text text-anchor="start" x="110" y="-86.9" font-family="Times,serif" font-size="14.00" fill="#000000">001000</text>
<text text-anchor="start" x="160" y="-86.9" font-family="Times,serif" font-size="14.00" fill="#000000">110001</text>
</g>
<!-- character&#45;&gt;char_expanded -->
<g id="edge1" class="edge">
<title>character&#45;&gt;char_expanded</title>
<path fill="none" stroke="#000000" d="M138,-145.7052C138,-137.832 138,-128.4471 138,-119.7167"/>
<polygon fill="#000000" stroke="#000000" points="141.5001,-119.5378 138,-109.5378 134.5001,-119.5378 141.5001,-119.5378"/>
</g>
<!-- u1 -->
<g id="node3" class="node">
<title>u1</title>
<polygon fill="none" stroke="#000000" points="0,-.5 0,-36.5 80,-36.5 80,-.5 0,-.5"/>
<text text-anchor="start" x="10" y="-13.9" font-family="Times,serif" font-size="14.00" fill="#ff0000">1110</text>
<text text-anchor="start" x="42" y="-13.9" font-family="Times,serif" font-size="14.00" fill="#000000">0111</text>
</g>
<!-- char_expanded&#45;&gt;u1 -->
<g id="edge2" class="edge">
<title>char_expanded:d1&#45;&gt;u1:d</title>
<path fill="none" stroke="#000000" d="M113.7753,-73.4551C101.2895,-64.1545 85.8914,-52.6844 72.398,-42.6332"/>
<polygon fill="#000000" stroke="#000000" points="74.3961,-39.7573 64.2857,-36.5904 70.2145,-45.371 74.3961,-39.7573"/>
</g>
<!-- u2 -->
<g id="node4" class="node">
<title>u2</title>
<polygon fill="none" stroke="#000000" points="98,-.5 98,-36.5 178,-36.5 178,-.5 98,-.5"/>
<text text-anchor="start" x="108" y="-13.9" font-family="Times,serif" font-size="14.00" fill="#ff0000">10</text>
<text text-anchor="start" x="126" y="-13.9" font-family="Times,serif" font-size="14.00" fill="#000000">001000</text>
</g>
<!-- char_expanded&#45;&gt;u2 -->
<g id="edge3" class="edge">
<title>char_expanded:d2&#45;&gt;u2:d</title>
<path fill="none" stroke="#000000" d="M138,-73.4551C138,-65.3828 138,-55.6764 138,-46.6817"/>
<polygon fill="#000000" stroke="#000000" points="141.5001,-46.5903 138,-36.5904 134.5001,-46.5904 141.5001,-46.5903"/>
</g>
<!-- u3 -->
<g id="node5" class="node">
<title>u3</title>
<polygon fill="none" stroke="#000000" points="196,-.5 196,-36.5 276,-36.5 276,-.5 196,-.5"/>
<text text-anchor="start" x="206" y="-13.9" font-family="Times,serif" font-size="14.00" fill="#ff0000">10</text>
<text text-anchor="start" x="224" y="-13.9" font-family="Times,serif" font-size="14.00" fill="#000000">110001</text>
</g>
<!-- char_expanded&#45;&gt;u3 -->
<g id="edge4" class="edge">
<title>char_expanded:d3&#45;&gt;u3:d</title>
<path fill="none" stroke="#000000" d="M162.2247,-73.4551C174.7105,-64.1545 190.1086,-52.6844 203.602,-42.6332"/>
<polygon fill="#000000" stroke="#000000" points="205.7855,-45.371 211.7143,-36.5904 201.6039,-39.7573 205.7855,-45.371"/>
</g>
</g>
</svg>
