<?xml version="1.0" encoding="UTF-8" standalone="no"?>
<!DOCTYPE svg PUBLIC "-//W3C//DTD SVG 1.1//EN"
 "http://www.w3.org/Graphics/SVG/1.1/DTD/svg11.dtd">
<!-- Generated by graphviz version 2.40.1 (20161225.0304)
 -->
<!-- Title: vanillaVAE Pages: 1 -->
<svg width="616pt" height="324pt"
 viewBox="0.00 0.00 616.00 324.00" xmlns="http://www.w3.org/2000/svg" xmlns:xlink="http://www.w3.org/1999/xlink">
<g id="graph0" class="graph" transform="scale(1 1) rotate(0) translate(4 320)">
<title>vanillaVAE</title>
<polygon fill="#ffffff" stroke="transparent" points="-4,4 -4,-320 612,-320 612,4 -4,4"/>
<g id="clust7" class="cluster">
<title>cluster_z</title>
<polygon fill="none" stroke="#ffffff" points="291,-123 291,-243 379,-243 379,-123 291,-123"/>
<text text-anchor="middle" x="335" y="-226.4" font-family="Times,serif" font-size="14.00" fill="#000000">Latent Space</text>
</g>
<g id="clust8" class="cluster">
<title>cluster_output_hidden</title>
<polygon fill="none" stroke="#ffffff" points="399,-26 399,-308 497,-308 497,-26 399,-26"/>
<text text-anchor="middle" x="448" y="-291.4" font-family="Times,serif" font-size="14.00" fill="#000000">Hidden Layers</text>
</g>
<g id="clust6" class="cluster">
<title>cluster_logvar</title>
<polygon fill="none" stroke="#ffffff" points="219,-17 219,-137 271,-137 271,-17 219,-17"/>
<text text-anchor="middle" x="245" y="-120.4" font-family="Times,serif" font-size="14.00" fill="#000000">logvar</text>
</g>
<g id="clust1" class="cluster">
<title>cluster_input</title>
<polygon fill="none" stroke="#ffffff" points="0,-127 0,-204 81,-204 81,-127 0,-127"/>
<text text-anchor="middle" x="40.5" y="-187.4" font-family="Times,serif" font-size="14.00" fill="#000000">Input Layer</text>
</g>
<g id="clust2" class="cluster">
<title>cluster_input_hidden</title>
<polygon fill="none" stroke="#ffffff" points="101,-8 101,-290 199,-290 199,-8 101,-8"/>
<text text-anchor="middle" x="150" y="-273.4" font-family="Times,serif" font-size="14.00" fill="#000000">Hidden Layers</text>
</g>
<g id="clust5" class="cluster">
<title>cluster_mu</title>
<polygon fill="none" stroke="#ffffff" points="219,-145 219,-265 271,-265 271,-145 219,-145"/>
<text text-anchor="middle" x="245" y="-248.4" font-family="Times,serif" font-size="14.00" fill="#000000">mu</text>
</g>
<g id="clust11" class="cluster">
<title>cluster_output</title>
<polygon fill="none" stroke="#ffffff" points="517,-145 517,-222 608,-222 608,-145 517,-145"/>
<text text-anchor="middle" x="562.5" y="-205.4" font-family="Times,serif" font-size="14.00" fill="#000000">Output Layer</text>
</g>
<!-- in -->
<g id="node1" class="node">
<title>in</title>
<ellipse fill="none" stroke="#00ff00" cx="40" cy="-153" rx="18" ry="18"/>
</g>
<!-- h11 -->
<g id="node2" class="node">
<title>h11</title>
<ellipse fill="none" stroke="#0000ff" cx="150" cy="-239" rx="18" ry="18"/>
</g>
<!-- in&#45;&gt;h11 -->
<g id="edge1" class="edge">
<title>in&#45;&gt;h11</title>
<path fill="none" stroke="#000000" d="M54.3806,-164.243C74.1444,-179.6947 109.7189,-207.5075 131.4607,-224.5057"/>
<polygon fill="#000000" stroke="#000000" points="130.599,-226.0533 135.6159,-227.7542 132.7547,-223.2959 130.599,-226.0533"/>
</g>
<!-- h12 -->
<g id="node3" class="node">
<title>h12</title>
<ellipse fill="none" stroke="#0000ff" cx="150" cy="-77" rx="18" ry="18"/>
</g>
<!-- in&#45;&gt;h12 -->
<g id="edge2" class="edge">
<title>in&#45;&gt;h12</title>
<path fill="none" stroke="#000000" d="M54.8351,-142.7503C74.5172,-129.1518 109.288,-105.1283 130.9083,-90.1906"/>
<polygon fill="#000000" stroke="#000000" points="131.9297,-91.612 135.0486,-87.33 129.9402,-88.7324 131.9297,-91.612"/>
</g>
<!-- h13 -->
<g id="node4" class="node">
<title>h13</title>
<ellipse fill="none" stroke="#0000ff" cx="150" cy="-34" rx="18" ry="18"/>
</g>
<!-- in&#45;&gt;h13 -->
<g id="edge3" class="edge">
<title>in&#45;&gt;h13</title>
<path fill="none" stroke="#000000" d="M52.6184,-139.3492C72.6766,-117.6498 111.8169,-75.3072 133.8784,-51.4407"/>
<polygon fill="#000000" stroke="#000000" points="135.4199,-52.3512 137.5288,-47.4916 132.8497,-49.9754 135.4199,-52.3512"/>
</g>
<!-- h14 -->
<g id="node8" class="node">
<title>h14</title>
<ellipse fill="none" stroke="#0000ff" cx="150" cy="-196" rx="18" ry="18"/>
</g>
<!-- in&#45;&gt;h14 -->
<g id="edge4" class="edge">
<title>in&#45;&gt;h14</title>
<path fill="none" stroke="#000000" d="M57.1875,-159.7188C76.319,-167.1974 107.2814,-179.3009 128.1263,-187.4494"/>
<polygon fill="#000000" stroke="#000000" points="127.6392,-189.1379 132.9332,-189.3284 128.9135,-185.8781 127.6392,-189.1379"/>
</g>
<!-- h15 -->
<g id="node9" class="node">
<title>h15</title>
<ellipse fill="none" stroke="#0000ff" cx="150" cy="-153" rx="18" ry="18"/>
</g>
<!-- in&#45;&gt;h15 -->
<g id="edge5" class="edge">
<title>in&#45;&gt;h15</title>
<path fill="none" stroke="#000000" d="M58.1643,-153C76.8736,-153 106.1076,-153 126.5522,-153"/>
<polygon fill="#000000" stroke="#000000" points="126.8088,-154.7501 131.8088,-153 126.8087,-151.2501 126.8088,-154.7501"/>
</g>
<!-- mu1 -->
<g id="node10" class="node">
<title>mu1</title>
<ellipse fill="none" stroke="#0000ff" cx="245" cy="-214" rx="18" ry="18"/>
</g>
<!-- h11&#45;&gt;mu1 -->
<g id="edge6" class="edge">
<title>h11&#45;&gt;mu1</title>
<path fill="none" stroke="#000000" d="M167.4245,-234.4146C182.8615,-230.3522 205.4979,-224.3953 222.3384,-219.9636"/>
<polygon fill="#000000" stroke="#000000" points="222.9743,-221.6059 227.3643,-218.641 222.0835,-218.2211 222.9743,-221.6059"/>
</g>
<!-- mu2 -->
<g id="node11" class="node">
<title>mu2</title>
<ellipse fill="none" stroke="#0000ff" cx="245" cy="-171" rx="18" ry="18"/>
</g>
<!-- h11&#45;&gt;mu2 -->
<g id="edge7" class="edge">
<title>h11&#45;&gt;mu2</title>
<path fill="none" stroke="#000000" d="M164.8438,-228.375C181.2967,-216.5981 207.8812,-197.5693 225.8807,-184.6854"/>
<polygon fill="#000000" stroke="#000000" points="227.2133,-185.8837 230.2605,-181.5504 225.1761,-183.0376 227.2133,-185.8837"/>
</g>
<!-- logvar1 -->
<g id="node12" class="node">
<title>logvar1</title>
<ellipse fill="none" stroke="#0000ff" cx="245" cy="-86" rx="18" ry="18"/>
</g>
<!-- h11&#45;&gt;logvar1 -->
<g id="edge16" class="edge">
<title>h11&#45;&gt;logvar1</title>
<path fill="none" stroke="#000000" d="M159.6319,-223.4876C176.9866,-195.5374 213.4791,-136.7653 232.6449,-105.8982"/>
<polygon fill="#000000" stroke="#000000" points="234.1918,-106.7244 235.3426,-101.5535 231.2183,-104.8781 234.1918,-106.7244"/>
</g>
<!-- logvar2 -->
<g id="node13" class="node">
<title>logvar2</title>
<ellipse fill="none" stroke="#0000ff" cx="245" cy="-43" rx="18" ry="18"/>
</g>
<!-- h11&#45;&gt;logvar2 -->
<g id="edge17" class="edge">
<title>h11&#45;&gt;logvar2</title>
<path fill="none" stroke="#000000" d="M157.9362,-222.6263C175.12,-187.1734 215.7532,-103.3408 234.806,-64.0318"/>
<polygon fill="#000000" stroke="#000000" points="236.4134,-64.7276 237.0195,-59.465 233.2639,-63.201 236.4134,-64.7276"/>
</g>
<!-- h12&#45;&gt;mu1 -->
<g id="edge8" class="edge">
<title>h12&#45;&gt;mu1</title>
<path fill="none" stroke="#000000" d="M160.3475,-91.9222C177.6936,-116.9371 212.6137,-167.2955 231.7368,-194.8731"/>
<polygon fill="#000000" stroke="#000000" points="230.378,-195.9846 234.6652,-199.0962 233.2541,-193.9902 230.378,-195.9846"/>
</g>
<!-- h12&#45;&gt;mu2 -->
<g id="edge9" class="edge">
<title>h12&#45;&gt;mu2</title>
<path fill="none" stroke="#000000" d="M162.8121,-89.6773C179.8103,-106.4965 209.8397,-136.2098 228.5117,-154.6853"/>
<polygon fill="#000000" stroke="#000000" points="227.3024,-155.9506 232.0875,-158.2234 229.7641,-153.4626 227.3024,-155.9506"/>
</g>
<!-- h12&#45;&gt;logvar1 -->
<g id="edge18" class="edge">
<title>h12&#45;&gt;logvar1</title>
<path fill="none" stroke="#000000" d="M168.317,-78.7353C183.5277,-80.1763 205.2569,-82.2349 221.7035,-83.793"/>
<polygon fill="#000000" stroke="#000000" points="221.9187,-85.5711 227.0615,-84.3006 222.2488,-82.0867 221.9187,-85.5711"/>
</g>
<!-- h12&#45;&gt;logvar2 -->
<g id="edge19" class="edge">
<title>h12&#45;&gt;logvar2</title>
<path fill="none" stroke="#000000" d="M166.9841,-70.9215C182.5581,-65.3476 205.722,-57.0574 222.7651,-50.9578"/>
<polygon fill="#000000" stroke="#000000" points="223.7248,-52.4731 227.8426,-49.1405 222.5453,-49.1778 223.7248,-52.4731"/>
</g>
<!-- h13&#45;&gt;mu1 -->
<g id="edge10" class="edge">
<title>h13&#45;&gt;mu1</title>
<path fill="none" stroke="#000000" d="M158.4306,-49.9738C175.6839,-82.6642 215.0021,-157.162 234.1368,-193.4172"/>
<polygon fill="#000000" stroke="#000000" points="232.7068,-194.4569 236.5883,-198.062 235.8021,-192.8232 232.7068,-194.4569"/>
</g>
<!-- h13&#45;&gt;mu2 -->
<g id="edge11" class="edge">
<title>h13&#45;&gt;mu2</title>
<path fill="none" stroke="#000000" d="M160.3475,-48.9222C177.6936,-73.9371 212.6137,-124.2955 231.7368,-151.8731"/>
<polygon fill="#000000" stroke="#000000" points="230.378,-152.9846 234.6652,-156.0962 233.2541,-150.9902 230.378,-152.9846"/>
</g>
<!-- h13&#45;&gt;logvar1 -->
<g id="edge20" class="edge">
<title>h13&#45;&gt;logvar1</title>
<path fill="none" stroke="#000000" d="M166.1155,-42.8211C182.1803,-51.6145 206.9142,-65.1531 224.397,-74.7226"/>
<polygon fill="#000000" stroke="#000000" points="223.8963,-76.4435 229.1225,-77.3092 225.5769,-73.3733 223.8963,-76.4435"/>
</g>
<!-- h13&#45;&gt;logvar2 -->
<g id="edge21" class="edge">
<title>h13&#45;&gt;logvar2</title>
<path fill="none" stroke="#000000" d="M168.317,-35.7353C183.5277,-37.1763 205.2569,-39.2349 221.7035,-40.793"/>
<polygon fill="#000000" stroke="#000000" points="221.9187,-42.5711 227.0615,-41.3006 222.2488,-39.0867 221.9187,-42.5711"/>
</g>
<!-- p11 -->
<g id="node5" class="node">
<title>p11</title>
<ellipse fill="#000000" stroke="#000000" cx="150" cy="-126" rx="1.8" ry="1.8"/>
</g>
<!-- p12 -->
<g id="node6" class="node">
<title>p12</title>
<ellipse fill="#000000" stroke="#000000" cx="150" cy="-115" rx="1.8" ry="1.8"/>
</g>
<!-- p13 -->
<g id="node7" class="node">
<title>p13</title>
<ellipse fill="#000000" stroke="#000000" cx="150" cy="-104" rx="1.8" ry="1.8"/>
</g>
<!-- h14&#45;&gt;mu1 -->
<g id="edge12" class="edge">
<title>h14&#45;&gt;mu1</title>
<path fill="none" stroke="#000000" d="M167.8688,-199.3857C183.261,-202.3021 205.5648,-206.5281 222.2332,-209.6863"/>
<polygon fill="#000000" stroke="#000000" points="221.9729,-211.418 227.2114,-210.6295 222.6246,-207.9792 221.9729,-211.418"/>
</g>
<!-- h14&#45;&gt;mu2 -->
<g id="edge13" class="edge">
<title>h14&#45;&gt;mu2</title>
<path fill="none" stroke="#000000" d="M167.4245,-191.4146C182.8615,-187.3522 205.4979,-181.3953 222.3384,-176.9636"/>
<polygon fill="#000000" stroke="#000000" points="222.9743,-178.6059 227.3643,-175.641 222.0835,-175.2211 222.9743,-178.6059"/>
</g>
<!-- h14&#45;&gt;logvar1 -->
<g id="edge22" class="edge">
<title>h14&#45;&gt;logvar1</title>
<path fill="none" stroke="#000000" d="M162.0318,-182.0684C179.2348,-162.1492 210.858,-125.5328 229.7023,-103.7131"/>
<polygon fill="#000000" stroke="#000000" points="231.1222,-104.7464 233.0659,-99.8185 228.4733,-102.4587 231.1222,-104.7464"/>
</g>
<!-- h14&#45;&gt;logvar2 -->
<g id="edge23" class="edge">
<title>h14&#45;&gt;logvar2</title>
<path fill="none" stroke="#000000" d="M159.6319,-180.4876C176.9866,-152.5374 213.4791,-93.7653 232.6449,-62.8982"/>
<polygon fill="#000000" stroke="#000000" points="234.1918,-63.7244 235.3426,-58.5535 231.2183,-61.8781 234.1918,-63.7244"/>
</g>
<!-- h15&#45;&gt;mu1 -->
<g id="edge14" class="edge">
<title>h15&#45;&gt;mu1</title>
<path fill="none" stroke="#000000" d="M165.2634,-162.8007C181.6064,-173.2947 207.5895,-189.9785 225.4261,-201.4315"/>
<polygon fill="#000000" stroke="#000000" points="224.6216,-202.9946 229.7745,-204.2236 226.5127,-200.0495 224.6216,-202.9946"/>
</g>
<!-- h15&#45;&gt;mu2 -->
<g id="edge15" class="edge">
<title>h15&#45;&gt;mu2</title>
<path fill="none" stroke="#000000" d="M167.8688,-156.3857C183.261,-159.3021 205.5648,-163.5281 222.2332,-166.6863"/>
<polygon fill="#000000" stroke="#000000" points="221.9729,-168.418 227.2114,-167.6295 222.6246,-164.9792 221.9729,-168.418"/>
</g>
<!-- h15&#45;&gt;logvar1 -->
<g id="edge24" class="edge">
<title>h15&#45;&gt;logvar1</title>
<path fill="none" stroke="#000000" d="M164.8438,-142.5313C181.2967,-130.9276 207.8812,-112.1785 225.8807,-99.4841"/>
<polygon fill="#000000" stroke="#000000" points="227.1831,-100.7071 230.2605,-96.3952 225.1658,-97.8469 227.1831,-100.7071"/>
</g>
<!-- h15&#45;&gt;logvar2 -->
<g id="edge25" class="edge">
<title>h15&#45;&gt;logvar2</title>
<path fill="none" stroke="#000000" d="M162.0318,-139.0684C179.2348,-119.1492 210.858,-82.5328 229.7023,-60.7131"/>
<polygon fill="#000000" stroke="#000000" points="231.1222,-61.7464 233.0659,-56.8185 228.4733,-59.4587 231.1222,-61.7464"/>
</g>
<!-- z1 -->
<g id="node14" class="node">
<title>z1</title>
<ellipse fill="none" stroke="#0000ff" cx="335" cy="-192" rx="18" ry="18"/>
</g>
<!-- mu1&#45;&gt;z1 -->
<g id="edge26" class="edge">
<title>mu1&#45;&gt;z1</title>
<path fill="none" stroke="#000000" d="M262.7811,-209.6535C276.9569,-206.1883 296.905,-201.3121 312.2452,-197.5623"/>
<polygon fill="#000000" stroke="#000000" points="312.8144,-199.2248 317.2558,-196.3375 311.9833,-195.8249 312.8144,-199.2248"/>
</g>
<!-- z2 -->
<g id="node15" class="node">
<title>z2</title>
<ellipse fill="none" stroke="#0000ff" cx="335" cy="-149" rx="18" ry="18"/>
</g>
<!-- mu2&#45;&gt;z2 -->
<g id="edge27" class="edge">
<title>mu2&#45;&gt;z2</title>
<path fill="none" stroke="#000000" d="M262.7811,-166.6535C276.9569,-163.1883 296.905,-158.3121 312.2452,-154.5623"/>
<polygon fill="#000000" stroke="#000000" points="312.8144,-156.2248 317.2558,-153.3375 311.9833,-152.8249 312.8144,-156.2248"/>
</g>
<!-- logvar1&#45;&gt;z1 -->
<g id="edge28" class="edge">
<title>logvar1&#45;&gt;z1</title>
<path fill="none" stroke="#000000" d="M256.7659,-99.8576C272.9363,-118.9028 302.0428,-153.1837 319.8315,-174.1349"/>
<polygon fill="#000000" stroke="#000000" points="318.661,-175.4601 323.2312,-178.1389 321.329,-173.1948 318.661,-175.4601"/>
</g>
<!-- logvar2&#45;&gt;z2 -->
<g id="edge29" class="edge">
<title>logvar2&#45;&gt;z2</title>
<path fill="none" stroke="#000000" d="M256.7659,-56.8576C272.9363,-75.9028 302.0428,-110.1837 319.8315,-131.1349"/>
<polygon fill="#000000" stroke="#000000" points="318.661,-132.4601 323.2312,-135.1389 321.329,-130.1948 318.661,-132.4601"/>
</g>
<!-- h21 -->
<g id="node16" class="node">
<title>h21</title>
<ellipse fill="none" stroke="#0000ff" cx="448" cy="-214" rx="18" ry="18"/>
</g>
<!-- z1&#45;&gt;h21 -->
<g id="edge30" class="edge">
<title>z1&#45;&gt;h21</title>
<path fill="none" stroke="#000000" d="M352.9052,-195.486C372.4938,-199.2997 403.9383,-205.4216 425.2577,-209.5723"/>
<polygon fill="#000000" stroke="#000000" points="424.9363,-211.2925 430.1786,-210.5303 425.6052,-207.857 424.9363,-211.2925"/>
</g>
<!-- h22 -->
<g id="node17" class="node">
<title>h22</title>
<ellipse fill="none" stroke="#0000ff" cx="448" cy="-171" rx="18" ry="18"/>
</g>
<!-- z1&#45;&gt;h22 -->
<g id="edge31" class="edge">
<title>z1&#45;&gt;h22</title>
<path fill="none" stroke="#000000" d="M352.9052,-188.6725C372.4938,-185.0321 403.9383,-179.1885 425.2577,-175.2264"/>
<polygon fill="#000000" stroke="#000000" points="425.5825,-176.9461 430.1786,-174.3119 424.943,-173.505 425.5825,-176.9461"/>
</g>
<!-- h23 -->
<g id="node18" class="node">
<title>h23</title>
<ellipse fill="none" stroke="#0000ff" cx="448" cy="-52" rx="18" ry="18"/>
</g>
<!-- z1&#45;&gt;h23 -->
<g id="edge32" class="edge">
<title>z1&#45;&gt;h23</title>
<path fill="none" stroke="#000000" d="M346.4569,-177.8056C367.0998,-152.2303 410.5067,-98.4519 433.304,-70.2075"/>
<polygon fill="#000000" stroke="#000000" points="434.7341,-71.2219 436.5128,-66.232 432.0106,-69.0236 434.7341,-71.2219"/>
</g>
<!-- h24 -->
<g id="node22" class="node">
<title>h24</title>
<ellipse fill="none" stroke="#0000ff" cx="448" cy="-257" rx="18" ry="18"/>
</g>
<!-- z1&#45;&gt;h24 -->
<g id="edge33" class="edge">
<title>z1&#45;&gt;h24</title>
<path fill="none" stroke="#000000" d="M350.7122,-201.038C370.7543,-212.5666 405.4583,-232.5291 427.5452,-245.234"/>
<polygon fill="#000000" stroke="#000000" points="426.8503,-246.8531 432.057,-247.8292 428.5955,-243.8192 426.8503,-246.8531"/>
</g>
<!-- h25 -->
<g id="node23" class="node">
<title>h25</title>
<ellipse fill="none" stroke="#0000ff" cx="448" cy="-95" rx="18" ry="18"/>
</g>
<!-- z1&#45;&gt;h25 -->
<g id="edge34" class="edge">
<title>z1&#45;&gt;h25</title>
<path fill="none" stroke="#000000" d="M348.856,-180.1059C369.273,-162.5798 407.4519,-129.8067 430.0085,-110.4441"/>
<polygon fill="#000000" stroke="#000000" points="431.3766,-111.576 434.0306,-106.9914 429.0968,-108.9203 431.3766,-111.576"/>
</g>
<!-- z2&#45;&gt;h21 -->
<g id="edge35" class="edge">
<title>z2&#45;&gt;h21</title>
<path fill="none" stroke="#000000" d="M350.7122,-158.038C370.7543,-169.5666 405.4583,-189.5291 427.5452,-202.234"/>
<polygon fill="#000000" stroke="#000000" points="426.8503,-203.8531 432.057,-204.8292 428.5955,-200.8192 426.8503,-203.8531"/>
</g>
<!-- z2&#45;&gt;h22 -->
<g id="edge36" class="edge">
<title>z2&#45;&gt;h22</title>
<path fill="none" stroke="#000000" d="M352.9052,-152.486C372.4938,-156.2997 403.9383,-162.4216 425.2577,-166.5723"/>
<polygon fill="#000000" stroke="#000000" points="424.9363,-168.2925 430.1786,-167.5303 425.6052,-164.857 424.9363,-168.2925"/>
</g>
<!-- z2&#45;&gt;h23 -->
<g id="edge37" class="edge">
<title>z2&#45;&gt;h23</title>
<path fill="none" stroke="#000000" d="M348.856,-137.1059C369.273,-119.5798 407.4519,-86.8067 430.0085,-67.4441"/>
<polygon fill="#000000" stroke="#000000" points="431.3766,-68.576 434.0306,-63.9914 429.0968,-65.9203 431.3766,-68.576"/>
</g>
<!-- z2&#45;&gt;h24 -->
<g id="edge38" class="edge">
<title>z2&#45;&gt;h24</title>
<path fill="none" stroke="#000000" d="M348.4063,-161.8131C369.0754,-181.5676 408.6878,-219.4273 431.2266,-240.9688"/>
<polygon fill="#000000" stroke="#000000" points="430.1361,-242.3473 434.9599,-244.5369 432.5544,-239.8171 430.1361,-242.3473"/>
</g>
<!-- z2&#45;&gt;h25 -->
<g id="edge39" class="edge">
<title>z2&#45;&gt;h25</title>
<path fill="none" stroke="#000000" d="M351.6735,-141.0321C371.65,-131.4858 405.1412,-115.4812 426.9007,-105.0829"/>
<polygon fill="#000000" stroke="#000000" points="427.8687,-106.5599 431.6254,-102.825 426.3595,-103.402 427.8687,-106.5599"/>
</g>
<!-- out -->
<g id="node24" class="node">
<title>out</title>
<ellipse fill="none" stroke="#ff0000" cx="562" cy="-171" rx="18" ry="18"/>
</g>
<!-- h21&#45;&gt;out -->
<g id="edge40" class="edge">
<title>h21&#45;&gt;out</title>
<path fill="none" stroke="#000000" d="M465.3141,-207.4692C485.3502,-199.9117 518.374,-187.4554 540.1574,-179.2389"/>
<polygon fill="#000000" stroke="#000000" points="540.8358,-180.8534 544.8964,-177.4513 539.6005,-177.5786 540.8358,-180.8534"/>
</g>
<!-- h22&#45;&gt;out -->
<g id="edge41" class="edge">
<title>h22&#45;&gt;out</title>
<path fill="none" stroke="#000000" d="M466.0636,-171C485.6264,-171 516.9102,-171 538.4031,-171"/>
<polygon fill="#000000" stroke="#000000" points="538.6434,-172.7501 543.6434,-171 538.6433,-169.2501 538.6434,-172.7501"/>
</g>
<!-- h23&#45;&gt;out -->
<g id="edge42" class="edge">
<title>h23&#45;&gt;out</title>
<path fill="none" stroke="#000000" d="M460.6356,-65.1898C481.4359,-86.9024 522.8637,-130.1472 545.7927,-154.0819"/>
<polygon fill="#000000" stroke="#000000" points="544.5852,-155.3512 549.3078,-157.7512 547.1127,-152.93 544.5852,-155.3512"/>
</g>
<!-- p21 -->
<g id="node19" class="node">
<title>p21</title>
<ellipse fill="#000000" stroke="#000000" cx="448" cy="-144" rx="1.8" ry="1.8"/>
</g>
<!-- p22 -->
<g id="node20" class="node">
<title>p22</title>
<ellipse fill="#000000" stroke="#000000" cx="448" cy="-133" rx="1.8" ry="1.8"/>
</g>
<!-- p23 -->
<g id="node21" class="node">
<title>p23</title>
<ellipse fill="#000000" stroke="#000000" cx="448" cy="-122" rx="1.8" ry="1.8"/>
</g>
<!-- h24&#45;&gt;out -->
<g id="edge43" class="edge">
<title>h24&#45;&gt;out</title>
<path fill="none" stroke="#000000" d="M462.4382,-246.108C482.9689,-230.6199 520.6154,-202.2199 543.2707,-185.1291"/>
<polygon fill="#000000" stroke="#000000" points="544.3813,-186.4835 547.319,-182.0752 542.2734,-183.6893 544.3813,-186.4835"/>
</g>
<!-- h25&#45;&gt;out -->
<g id="edge44" class="edge">
<title>h25&#45;&gt;out</title>
<path fill="none" stroke="#000000" d="M463.3745,-105.2497C483.8863,-118.9242 520.2107,-143.1405 542.5883,-158.0589"/>
<polygon fill="#000000" stroke="#000000" points="541.738,-159.5952 546.869,-160.9127 543.6795,-156.6831 541.738,-159.5952"/>
</g>
</g>
</svg>
