<?xml version="1.0" encoding="UTF-8" standalone="no"?>
<!DOCTYPE svg PUBLIC "-//W3C//DTD SVG 1.1//EN"
 "http://www.w3.org/Graphics/SVG/1.1/DTD/svg11.dtd">
<!-- Generated by graphviz version 2.40.1 (20161225.0304)
 -->
<!-- Title: vanillaVAE Pages: 1 -->
<svg width="616pt" height="317pt"
 viewBox="0.00 0.00 616.00 317.00" xmlns="http://www.w3.org/2000/svg" xmlns:xlink="http://www.w3.org/1999/xlink">
<g id="graph0" class="graph" transform="scale(1 1) rotate(0) translate(4 313)">
<title>vanillaVAE</title>
<polygon fill="#ffffff" stroke="transparent" points="-4,4 -4,-313 612,-313 612,4 -4,4"/>
<g id="clust7" class="cluster">
<title>cluster_z</title>
<polygon fill="none" stroke="#ffffff" points="291,-105 291,-225 379,-225 379,-105 291,-105"/>
<text text-anchor="middle" x="335" y="-208.4" font-family="Times,serif" font-size="14.00" fill="#000000">Latent Space</text>
</g>
<g id="clust11" class="cluster">
<title>cluster_output</title>
<polygon fill="none" stroke="#ffffff" points="517,-127 517,-204 608,-204 608,-127 517,-127"/>
<text text-anchor="middle" x="562.5" y="-187.4" font-family="Times,serif" font-size="14.00" fill="#000000">Output Layer</text>
</g>
<g id="clust6" class="cluster">
<title>cluster_logvar</title>
<polygon fill="none" stroke="#ffffff" points="219,-53 219,-173 271,-173 271,-53 219,-53"/>
<text text-anchor="middle" x="245" y="-156.4" font-family="Times,serif" font-size="14.00" fill="#000000">logvar</text>
</g>
<g id="clust5" class="cluster">
<title>cluster_mu</title>
<polygon fill="none" stroke="#ffffff" points="219,-181 219,-301 271,-301 271,-181 219,-181"/>
<text text-anchor="middle" x="245" y="-284.4" font-family="Times,serif" font-size="14.00" fill="#000000">mu</text>
</g>
<g id="clust2" class="cluster">
<title>cluster_input_hidden</title>
<polygon fill="none" stroke="#ffffff" points="101,-19 101,-301 199,-301 199,-19 101,-19"/>
<text text-anchor="middle" x="150" y="-284.4" font-family="Times,serif" font-size="14.00" fill="#000000">Hidden Layers</text>
</g>
<g id="clust8" class="cluster">
<title>cluster_output_hidden</title>
<polygon fill="none" stroke="#ffffff" points="399,-8 399,-290 497,-290 497,-8 399,-8"/>
<text text-anchor="middle" x="448" y="-273.4" font-family="Times,serif" font-size="14.00" fill="#000000">Hidden Layers</text>
</g>
<g id="clust1" class="cluster">
<title>cluster_input</title>
<polygon fill="none" stroke="#ffffff" points="0,-138 0,-215 81,-215 81,-138 0,-138"/>
<text text-anchor="middle" x="40.5" y="-198.4" font-family="Times,serif" font-size="14.00" fill="#000000">Input Layer</text>
</g>
<!-- in -->
<g id="node1" class="node">
<title>in</title>
<ellipse fill="none" stroke="#00ff00" cx="40" cy="-164" rx="18" ry="18"/>
</g>
<!-- h11 -->
<g id="node2" class="node">
<title>h11</title>
<ellipse fill="none" stroke="#0000ff" cx="150" cy="-250" rx="18" ry="18"/>
</g>
<!-- in&#45;&gt;h11 -->
<g id="edge1" class="edge">
<title>in&#45;&gt;h11</title>
<path fill="none" stroke="#000000" d="M54.3806,-175.243C74.1444,-190.6947 109.7189,-218.5075 131.4607,-235.5057"/>
<polygon fill="#000000" stroke="#000000" points="130.599,-237.0533 135.6159,-238.7542 132.7547,-234.2959 130.599,-237.0533"/>
</g>
<!-- h12 -->
<g id="node3" class="node">
<title>h12</title>
<ellipse fill="none" stroke="#0000ff" cx="150" cy="-88" rx="18" ry="18"/>
</g>
<!-- in&#45;&gt;h12 -->
<g id="edge2" class="edge">
<title>in&#45;&gt;h12</title>
<path fill="none" stroke="#000000" d="M54.8351,-153.7503C74.5172,-140.1518 109.288,-116.1283 130.9083,-101.1906"/>
<polygon fill="#000000" stroke="#000000" points="131.9297,-102.612 135.0486,-98.33 129.9402,-99.7324 131.9297,-102.612"/>
</g>
<!-- h13 -->
<g id="node4" class="node">
<title>h13</title>
<ellipse fill="none" stroke="#0000ff" cx="150" cy="-45" rx="18" ry="18"/>
</g>
<!-- in&#45;&gt;h13 -->
<g id="edge3" class="edge">
<title>in&#45;&gt;h13</title>
<path fill="none" stroke="#000000" d="M52.6184,-150.3492C72.6766,-128.6498 111.8169,-86.3072 133.8784,-62.4407"/>
<polygon fill="#000000" stroke="#000000" points="135.4199,-63.3512 137.5288,-58.4916 132.8497,-60.9754 135.4199,-63.3512"/>
</g>
<!-- h14 -->
<g id="node8" class="node">
<title>h14</title>
<ellipse fill="none" stroke="#0000ff" cx="150" cy="-207" rx="18" ry="18"/>
</g>
<!-- in&#45;&gt;h14 -->
<g id="edge4" class="edge">
<title>in&#45;&gt;h14</title>
<path fill="none" stroke="#000000" d="M57.1875,-170.7188C76.319,-178.1974 107.2814,-190.3009 128.1263,-198.4494"/>
<polygon fill="#000000" stroke="#000000" points="127.6392,-200.1379 132.9332,-200.3284 128.9135,-196.8781 127.6392,-200.1379"/>
</g>
<!-- h15 -->
<g id="node9" class="node">
<title>h15</title>
<ellipse fill="none" stroke="#0000ff" cx="150" cy="-164" rx="18" ry="18"/>
</g>
<!-- in&#45;&gt;h15 -->
<g id="edge5" class="edge">
<title>in&#45;&gt;h15</title>
<path fill="none" stroke="#000000" d="M58.1643,-164C76.8736,-164 106.1076,-164 126.5522,-164"/>
<polygon fill="#000000" stroke="#000000" points="126.8088,-165.7501 131.8088,-164 126.8087,-162.2501 126.8088,-165.7501"/>
</g>
<!-- mu1 -->
<g id="node10" class="node">
<title>mu1</title>
<ellipse fill="none" stroke="#0000ff" cx="245" cy="-250" rx="18" ry="18"/>
</g>
<!-- h11&#45;&gt;mu1 -->
<g id="edge6" class="edge">
<title>h11&#45;&gt;mu1</title>
<path fill="none" stroke="#000000" d="M168.317,-250C183.4308,-250 204.9804,-250 221.3886,-250"/>
<polygon fill="#000000" stroke="#000000" points="221.7393,-251.7501 226.7393,-250 221.7392,-248.2501 221.7393,-251.7501"/>
</g>
<!-- mu2 -->
<g id="node11" class="node">
<title>mu2</title>
<ellipse fill="none" stroke="#0000ff" cx="245" cy="-207" rx="18" ry="18"/>
</g>
<!-- h11&#45;&gt;mu2 -->
<g id="edge7" class="edge">
<title>h11&#45;&gt;mu2</title>
<path fill="none" stroke="#000000" d="M166.5477,-242.51C182.3887,-235.3398 206.3645,-224.4876 223.6404,-216.668"/>
<polygon fill="#000000" stroke="#000000" points="224.4897,-218.2046 228.3231,-214.5485 223.0464,-215.016 224.4897,-218.2046"/>
</g>
<!-- logvar1 -->
<g id="node12" class="node">
<title>logvar1</title>
<ellipse fill="none" stroke="#0000ff" cx="245" cy="-122" rx="18" ry="18"/>
</g>
<!-- h11&#45;&gt;logvar1 -->
<g id="edge16" class="edge">
<title>h11&#45;&gt;logvar1</title>
<path fill="none" stroke="#000000" d="M160.8977,-235.3168C178.2207,-211.9763 212.0236,-166.4313 231.0768,-140.7597"/>
<polygon fill="#000000" stroke="#000000" points="232.6547,-141.57 234.2294,-136.512 229.8442,-139.484 232.6547,-141.57"/>
</g>
<!-- logvar2 -->
<g id="node13" class="node">
<title>logvar2</title>
<ellipse fill="none" stroke="#0000ff" cx="245" cy="-79" rx="18" ry="18"/>
</g>
<!-- h11&#45;&gt;logvar2 -->
<g id="edge17" class="edge">
<title>h11&#45;&gt;logvar2</title>
<path fill="none" stroke="#000000" d="M158.7671,-234.2192C176.0873,-203.0428 214.6672,-133.5991 233.7985,-99.1627"/>
<polygon fill="#000000" stroke="#000000" points="235.3556,-99.9633 236.2541,-94.7426 232.2961,-98.2635 235.3556,-99.9633"/>
</g>
<!-- h12&#45;&gt;mu1 -->
<g id="edge8" class="edge">
<title>h12&#45;&gt;mu1</title>
<path fill="none" stroke="#000000" d="M159.109,-103.5332C176.3719,-132.9711 213.8414,-196.8663 233.0777,-229.6694"/>
<polygon fill="#000000" stroke="#000000" points="231.7401,-230.8479 235.779,-234.2758 234.7593,-229.0774 231.7401,-230.8479"/>
</g>
<!-- h12&#45;&gt;mu2 -->
<g id="edge9" class="edge">
<title>h12&#45;&gt;mu2</title>
<path fill="none" stroke="#000000" d="M161.2708,-102.1182C178.5545,-123.7683 211.5942,-165.1548 230.5932,-188.9536"/>
<polygon fill="#000000" stroke="#000000" points="229.2567,-190.0845 233.7439,-192.9002 231.992,-187.9008 229.2567,-190.0845"/>
</g>
<!-- h12&#45;&gt;logvar1 -->
<g id="edge18" class="edge">
<title>h12&#45;&gt;logvar1</title>
<path fill="none" stroke="#000000" d="M166.9841,-94.0785C182.5581,-99.6524 205.722,-107.9426 222.7651,-114.0422"/>
<polygon fill="#000000" stroke="#000000" points="222.5453,-115.8222 227.8426,-115.8595 223.7248,-112.5269 222.5453,-115.8222"/>
</g>
<!-- h12&#45;&gt;logvar2 -->
<g id="edge19" class="edge">
<title>h12&#45;&gt;logvar2</title>
<path fill="none" stroke="#000000" d="M168.317,-86.2647C183.5277,-84.8237 205.2569,-82.7651 221.7035,-81.207"/>
<polygon fill="#000000" stroke="#000000" points="222.2488,-82.9133 227.0615,-80.6994 221.9187,-79.4289 222.2488,-82.9133"/>
</g>
<!-- h13&#45;&gt;mu1 -->
<g id="edge10" class="edge">
<title>h13&#45;&gt;mu1</title>
<path fill="none" stroke="#000000" d="M157.6137,-61.4295C174.7068,-98.3146 216.1193,-187.6786 235.1441,-228.732"/>
<polygon fill="#000000" stroke="#000000" points="233.6599,-229.6915 237.3501,-233.4923 236.8355,-228.2199 233.6599,-229.6915"/>
</g>
<!-- h13&#45;&gt;mu2 -->
<g id="edge11" class="edge">
<title>h13&#45;&gt;mu2</title>
<path fill="none" stroke="#000000" d="M159.109,-60.5332C176.3719,-89.9711 213.8414,-153.8663 233.0777,-186.6694"/>
<polygon fill="#000000" stroke="#000000" points="231.7401,-187.8479 235.779,-191.2758 234.7593,-186.0774 231.7401,-187.8479"/>
</g>
<!-- h13&#45;&gt;logvar1 -->
<g id="edge20" class="edge">
<title>h13&#45;&gt;logvar1</title>
<path fill="none" stroke="#000000" d="M164.0176,-56.3616C180.716,-69.8961 208.6468,-92.5348 226.947,-107.3676"/>
<polygon fill="#000000" stroke="#000000" points="225.9386,-108.8029 230.9249,-110.5918 228.1425,-106.0839 225.9386,-108.8029"/>
</g>
<!-- h13&#45;&gt;logvar2 -->
<g id="edge21" class="edge">
<title>h13&#45;&gt;logvar2</title>
<path fill="none" stroke="#000000" d="M166.9841,-51.0785C182.5581,-56.6524 205.722,-64.9426 222.7651,-71.0422"/>
<polygon fill="#000000" stroke="#000000" points="222.5453,-72.8222 227.8426,-72.8595 223.7248,-69.5269 222.5453,-72.8222"/>
</g>
<!-- p11 -->
<g id="node5" class="node">
<title>p11</title>
<ellipse fill="#000000" stroke="#000000" cx="150" cy="-137" rx="1.8" ry="1.8"/>
</g>
<!-- p12 -->
<g id="node6" class="node">
<title>p12</title>
<ellipse fill="#000000" stroke="#000000" cx="150" cy="-126" rx="1.8" ry="1.8"/>
</g>
<!-- p13 -->
<g id="node7" class="node">
<title>p13</title>
<ellipse fill="#000000" stroke="#000000" cx="150" cy="-115" rx="1.8" ry="1.8"/>
</g>
<!-- h14&#45;&gt;mu1 -->
<g id="edge12" class="edge">
<title>h14&#45;&gt;mu1</title>
<path fill="none" stroke="#000000" d="M166.5477,-214.49C182.3887,-221.6602 206.3645,-232.5124 223.6404,-240.332"/>
<polygon fill="#000000" stroke="#000000" points="223.0464,-241.984 228.3231,-242.4515 224.4897,-238.7954 223.0464,-241.984"/>
</g>
<!-- h14&#45;&gt;mu2 -->
<g id="edge13" class="edge">
<title>h14&#45;&gt;mu2</title>
<path fill="none" stroke="#000000" d="M168.317,-207C183.4308,-207 204.9804,-207 221.3886,-207"/>
<polygon fill="#000000" stroke="#000000" points="221.7393,-208.7501 226.7393,-207 221.7392,-205.2501 221.7393,-208.7501"/>
</g>
<!-- h14&#45;&gt;logvar1 -->
<g id="edge22" class="edge">
<title>h14&#45;&gt;logvar1</title>
<path fill="none" stroke="#000000" d="M163.6112,-194.8216C180.4009,-179.7992 208.9774,-154.2308 227.4144,-137.7345"/>
<polygon fill="#000000" stroke="#000000" points="228.8547,-138.794 231.4141,-134.1558 226.5209,-136.1857 228.8547,-138.794"/>
</g>
<!-- h14&#45;&gt;logvar2 -->
<g id="edge23" class="edge">
<title>h14&#45;&gt;logvar2</title>
<path fill="none" stroke="#000000" d="M160.8977,-192.3168C178.2207,-168.9763 212.0236,-123.4313 231.0768,-97.7597"/>
<polygon fill="#000000" stroke="#000000" points="232.6547,-98.57 234.2294,-93.512 229.8442,-96.484 232.6547,-98.57"/>
</g>
<!-- h15&#45;&gt;mu1 -->
<g id="edge14" class="edge">
<title>h15&#45;&gt;mu1</title>
<path fill="none" stroke="#000000" d="M163.6112,-176.3217C180.4009,-191.5208 208.9774,-217.39 227.4144,-234.0804"/>
<polygon fill="#000000" stroke="#000000" points="226.5328,-235.6429 231.4141,-237.7012 228.8818,-233.0482 226.5328,-235.6429"/>
</g>
<!-- h15&#45;&gt;mu2 -->
<g id="edge15" class="edge">
<title>h15&#45;&gt;mu2</title>
<path fill="none" stroke="#000000" d="M166.5477,-171.49C182.3887,-178.6602 206.3645,-189.5124 223.6404,-197.332"/>
<polygon fill="#000000" stroke="#000000" points="223.0464,-198.984 228.3231,-199.4515 224.4897,-195.7954 223.0464,-198.984"/>
</g>
<!-- h15&#45;&gt;logvar1 -->
<g id="edge24" class="edge">
<title>h15&#45;&gt;logvar1</title>
<path fill="none" stroke="#000000" d="M166.5477,-156.6842C182.3887,-149.6808 206.3645,-139.081 223.6404,-131.4432"/>
<polygon fill="#000000" stroke="#000000" points="224.4577,-132.9953 228.3231,-129.3729 223.0425,-129.7942 224.4577,-132.9953"/>
</g>
<!-- h15&#45;&gt;logvar2 -->
<g id="edge25" class="edge">
<title>h15&#45;&gt;logvar2</title>
<path fill="none" stroke="#000000" d="M163.6112,-151.8216C180.4009,-136.7992 208.9774,-111.2308 227.4144,-94.7345"/>
<polygon fill="#000000" stroke="#000000" points="228.8547,-95.794 231.4141,-91.1558 226.5209,-93.1857 228.8547,-95.794"/>
</g>
<!-- z1 -->
<g id="node14" class="node">
<title>z1</title>
<ellipse fill="none" stroke="#0000ff" cx="335" cy="-174" rx="18" ry="18"/>
</g>
<!-- mu1&#45;&gt;z1 -->
<g id="edge26" class="edge">
<title>mu1&#45;&gt;z1</title>
<path fill="none" stroke="#000000" d="M259.0625,-238.125C274.6495,-224.9626 299.8348,-203.6951 316.887,-189.2954"/>
<polygon fill="#000000" stroke="#000000" points="318.3452,-190.3546 321.0362,-185.7916 316.087,-187.6805 318.3452,-190.3546"/>
</g>
<!-- z2 -->
<g id="node15" class="node">
<title>z2</title>
<ellipse fill="none" stroke="#0000ff" cx="335" cy="-131" rx="18" ry="18"/>
</g>
<!-- mu2&#45;&gt;z2 -->
<g id="edge27" class="edge">
<title>mu2&#45;&gt;z2</title>
<path fill="none" stroke="#000000" d="M259.0625,-195.125C274.6495,-181.9626 299.8348,-160.6951 316.887,-146.2954"/>
<polygon fill="#000000" stroke="#000000" points="318.3452,-147.3546 321.0362,-142.7916 316.087,-144.6805 318.3452,-147.3546"/>
</g>
<!-- logvar1&#45;&gt;z1 -->
<g id="edge28" class="edge">
<title>logvar1&#45;&gt;z1</title>
<path fill="none" stroke="#000000" d="M260.6768,-131.0577C275.684,-139.7286 298.3979,-152.8521 314.7646,-162.3084"/>
<polygon fill="#000000" stroke="#000000" points="313.996,-163.8854 319.2009,-164.8716 315.747,-160.8549 313.996,-163.8854"/>
</g>
<!-- logvar2&#45;&gt;z2 -->
<g id="edge29" class="edge">
<title>logvar2&#45;&gt;z2</title>
<path fill="none" stroke="#000000" d="M260.6768,-88.0577C275.684,-96.7286 298.3979,-109.8521 314.7646,-119.3084"/>
<polygon fill="#000000" stroke="#000000" points="313.996,-120.8854 319.2009,-121.8716 315.747,-117.8549 313.996,-120.8854"/>
</g>
<!-- h21 -->
<g id="node16" class="node">
<title>h21</title>
<ellipse fill="none" stroke="#0000ff" cx="448" cy="-196" rx="18" ry="18"/>
</g>
<!-- z1&#45;&gt;h21 -->
<g id="edge30" class="edge">
<title>z1&#45;&gt;h21</title>
<path fill="none" stroke="#000000" d="M352.9052,-177.486C372.4938,-181.2997 403.9383,-187.4216 425.2577,-191.5723"/>
<polygon fill="#000000" stroke="#000000" points="424.9363,-193.2925 430.1786,-192.5303 425.6052,-189.857 424.9363,-193.2925"/>
</g>
<!-- h22 -->
<g id="node17" class="node">
<title>h22</title>
<ellipse fill="none" stroke="#0000ff" cx="448" cy="-153" rx="18" ry="18"/>
</g>
<!-- z1&#45;&gt;h22 -->
<g id="edge31" class="edge">
<title>z1&#45;&gt;h22</title>
<path fill="none" stroke="#000000" d="M352.9052,-170.6725C372.4938,-167.0321 403.9383,-161.1885 425.2577,-157.2264"/>
<polygon fill="#000000" stroke="#000000" points="425.5825,-158.9461 430.1786,-156.3119 424.943,-155.505 425.5825,-158.9461"/>
</g>
<!-- h23 -->
<g id="node18" class="node">
<title>h23</title>
<ellipse fill="none" stroke="#0000ff" cx="448" cy="-34" rx="18" ry="18"/>
</g>
<!-- z1&#45;&gt;h23 -->
<g id="edge32" class="edge">
<title>z1&#45;&gt;h23</title>
<path fill="none" stroke="#000000" d="M346.4569,-159.8056C367.0998,-134.2303 410.5067,-80.4519 433.304,-52.2075"/>
<polygon fill="#000000" stroke="#000000" points="434.7341,-53.2219 436.5128,-48.232 432.0106,-51.0236 434.7341,-53.2219"/>
</g>
<!-- h24 -->
<g id="node22" class="node">
<title>h24</title>
<ellipse fill="none" stroke="#0000ff" cx="448" cy="-239" rx="18" ry="18"/>
</g>
<!-- z1&#45;&gt;h24 -->
<g id="edge33" class="edge">
<title>z1&#45;&gt;h24</title>
<path fill="none" stroke="#000000" d="M350.7122,-183.038C370.7543,-194.5666 405.4583,-214.5291 427.5452,-227.234"/>
<polygon fill="#000000" stroke="#000000" points="426.8503,-228.8531 432.057,-229.8292 428.5955,-225.8192 426.8503,-228.8531"/>
</g>
<!-- h25 -->
<g id="node23" class="node">
<title>h25</title>
<ellipse fill="none" stroke="#0000ff" cx="448" cy="-77" rx="18" ry="18"/>
</g>
<!-- z1&#45;&gt;h25 -->
<g id="edge34" class="edge">
<title>z1&#45;&gt;h25</title>
<path fill="none" stroke="#000000" d="M348.856,-162.1059C369.273,-144.5798 407.4519,-111.8067 430.0085,-92.4441"/>
<polygon fill="#000000" stroke="#000000" points="431.3766,-93.576 434.0306,-88.9914 429.0968,-90.9203 431.3766,-93.576"/>
</g>
<!-- z2&#45;&gt;h21 -->
<g id="edge35" class="edge">
<title>z2&#45;&gt;h21</title>
<path fill="none" stroke="#000000" d="M350.7122,-140.038C370.7543,-151.5666 405.4583,-171.5291 427.5452,-184.234"/>
<polygon fill="#000000" stroke="#000000" points="426.8503,-185.8531 432.057,-186.8292 428.5955,-182.8192 426.8503,-185.8531"/>
</g>
<!-- z2&#45;&gt;h22 -->
<g id="edge36" class="edge">
<title>z2&#45;&gt;h22</title>
<path fill="none" stroke="#000000" d="M352.9052,-134.486C372.4938,-138.2997 403.9383,-144.4216 425.2577,-148.5723"/>
<polygon fill="#000000" stroke="#000000" points="424.9363,-150.2925 430.1786,-149.5303 425.6052,-146.857 424.9363,-150.2925"/>
</g>
<!-- z2&#45;&gt;h23 -->
<g id="edge37" class="edge">
<title>z2&#45;&gt;h23</title>
<path fill="none" stroke="#000000" d="M348.856,-119.1059C369.273,-101.5798 407.4519,-68.8067 430.0085,-49.4441"/>
<polygon fill="#000000" stroke="#000000" points="431.3766,-50.576 434.0306,-45.9914 429.0968,-47.9203 431.3766,-50.576"/>
</g>
<!-- z2&#45;&gt;h24 -->
<g id="edge38" class="edge">
<title>z2&#45;&gt;h24</title>
<path fill="none" stroke="#000000" d="M348.4063,-143.8131C369.0754,-163.5676 408.6878,-201.4273 431.2266,-222.9688"/>
<polygon fill="#000000" stroke="#000000" points="430.1361,-224.3473 434.9599,-226.5369 432.5544,-221.8171 430.1361,-224.3473"/>
</g>
<!-- z2&#45;&gt;h25 -->
<g id="edge39" class="edge">
<title>z2&#45;&gt;h25</title>
<path fill="none" stroke="#000000" d="M351.6735,-123.0321C371.65,-113.4858 405.1412,-97.4812 426.9007,-87.0829"/>
<polygon fill="#000000" stroke="#000000" points="427.8687,-88.5599 431.6254,-84.825 426.3595,-85.402 427.8687,-88.5599"/>
</g>
<!-- out -->
<g id="node24" class="node">
<title>out</title>
<ellipse fill="none" stroke="#ff0000" cx="562" cy="-153" rx="18" ry="18"/>
</g>
<!-- h21&#45;&gt;out -->
<g id="edge40" class="edge">
<title>h21&#45;&gt;out</title>
<path fill="none" stroke="#000000" d="M465.3141,-189.4692C485.3502,-181.9117 518.374,-169.4554 540.1574,-161.2389"/>
<polygon fill="#000000" stroke="#000000" points="540.8358,-162.8534 544.8964,-159.4513 539.6005,-159.5786 540.8358,-162.8534"/>
</g>
<!-- h22&#45;&gt;out -->
<g id="edge41" class="edge">
<title>h22&#45;&gt;out</title>
<path fill="none" stroke="#000000" d="M466.0636,-153C485.6264,-153 516.9102,-153 538.4031,-153"/>
<polygon fill="#000000" stroke="#000000" points="538.6434,-154.7501 543.6434,-153 538.6433,-151.2501 538.6434,-154.7501"/>
</g>
<!-- h23&#45;&gt;out -->
<g id="edge42" class="edge">
<title>h23&#45;&gt;out</title>
<path fill="none" stroke="#000000" d="M460.6356,-47.1898C481.4359,-68.9024 522.8637,-112.1472 545.7927,-136.0819"/>
<polygon fill="#000000" stroke="#000000" points="544.5852,-137.3512 549.3078,-139.7512 547.1127,-134.93 544.5852,-137.3512"/>
</g>
<!-- p21 -->
<g id="node19" class="node">
<title>p21</title>
<ellipse fill="#000000" stroke="#000000" cx="448" cy="-126" rx="1.8" ry="1.8"/>
</g>
<!-- p22 -->
<g id="node20" class="node">
<title>p22</title>
<ellipse fill="#000000" stroke="#000000" cx="448" cy="-115" rx="1.8" ry="1.8"/>
</g>
<!-- p23 -->
<g id="node21" class="node">
<title>p23</title>
<ellipse fill="#000000" stroke="#000000" cx="448" cy="-104" rx="1.8" ry="1.8"/>
</g>
<!-- h24&#45;&gt;out -->
<g id="edge43" class="edge">
<title>h24&#45;&gt;out</title>
<path fill="none" stroke="#000000" d="M462.4382,-228.108C482.9689,-212.6199 520.6154,-184.2199 543.2707,-167.1291"/>
<polygon fill="#000000" stroke="#000000" points="544.3813,-168.4835 547.319,-164.0752 542.2734,-165.6893 544.3813,-168.4835"/>
</g>
<!-- h25&#45;&gt;out -->
<g id="edge44" class="edge">
<title>h25&#45;&gt;out</title>
<path fill="none" stroke="#000000" d="M463.3745,-87.2497C483.8863,-100.9242 520.2107,-125.1405 542.5883,-140.0589"/>
<polygon fill="#000000" stroke="#000000" points="541.738,-141.5952 546.869,-142.9127 543.6795,-138.6831 541.738,-141.5952"/>
</g>
</g>
</svg>
