<?xml version="1.0" encoding="UTF-8" standalone="no"?>
<!DOCTYPE svg PUBLIC "-//W3C//DTD SVG 1.1//EN"
 "http://www.w3.org/Graphics/SVG/1.1/DTD/svg11.dtd">
<!-- Generated by graphviz version 2.40.1 (20161225.0304)
 -->
<!-- Title: vanillaVAE Pages: 1 -->
<svg width="616pt" height="332pt"
 viewBox="0.00 0.00 616.00 332.00" xmlns="http://www.w3.org/2000/svg" xmlns:xlink="http://www.w3.org/1999/xlink">
<g id="graph0" class="graph" transform="scale(1 1) rotate(0) translate(4 328)">
<title>vanillaVAE</title>
<polygon fill="#ffffff" stroke="transparent" points="-4,4 -4,-328 612,-328 612,4 -4,4"/>
<g id="clust1" class="cluster">
<title>cluster_input</title>
<polygon fill="none" stroke="#ffffff" points="0,-127 0,-204 81,-204 81,-127 0,-127"/>
<text text-anchor="middle" x="40.5" y="-187.4" font-family="Times,serif" font-size="14.00" fill="#000000">Input Layer</text>
</g>
<g id="clust8" class="cluster">
<title>cluster_output_hidden</title>
<polygon fill="none" stroke="#ffffff" points="399,-34 399,-316 497,-316 497,-34 399,-34"/>
<text text-anchor="middle" x="448" y="-299.4" font-family="Times,serif" font-size="14.00" fill="#000000">Hidden Layers</text>
</g>
<g id="clust2" class="cluster">
<title>cluster_input_hidden</title>
<polygon fill="none" stroke="#ffffff" points="101,-8 101,-290 199,-290 199,-8 101,-8"/>
<text text-anchor="middle" x="150" y="-273.4" font-family="Times,serif" font-size="14.00" fill="#000000">Hidden Layers</text>
</g>
<g id="clust5" class="cluster">
<title>cluster_mu</title>
<polygon fill="none" stroke="#ffffff" points="219,-153 219,-273 271,-273 271,-153 219,-153"/>
<text text-anchor="middle" x="245" y="-256.4" font-family="Times,serif" font-size="14.00" fill="#000000">mu</text>
</g>
<g id="clust6" class="cluster">
<title>cluster_logvar</title>
<polygon fill="none" stroke="#ffffff" points="219,-25 219,-145 271,-145 271,-25 219,-25"/>
<text text-anchor="middle" x="245" y="-128.4" font-family="Times,serif" font-size="14.00" fill="#000000">logvar</text>
</g>
<g id="clust7" class="cluster">
<title>cluster_z</title>
<polygon fill="none" stroke="#ffffff" points="291,-131 291,-251 379,-251 379,-131 291,-131"/>
<text text-anchor="middle" x="335" y="-234.4" font-family="Times,serif" font-size="14.00" fill="#000000">Latent Space</text>
</g>
<g id="clust11" class="cluster">
<title>cluster_output</title>
<polygon fill="none" stroke="#ffffff" points="517,-153 517,-230 608,-230 608,-153 517,-153"/>
<text text-anchor="middle" x="562.5" y="-213.4" font-family="Times,serif" font-size="14.00" fill="#000000">Output Layer</text>
</g>
<!-- in -->
<g id="node1" class="node">
<title>in</title>
<ellipse fill="none" stroke="#00ff00" cx="40" cy="-153" rx="18" ry="18"/>
</g>
<!-- h11 -->
<g id="node2" class="node">
<title>h11</title>
<ellipse fill="none" stroke="#0000ff" cx="150" cy="-239" rx="18" ry="18"/>
</g>
<!-- in&#45;&gt;h11 -->
<g id="edge1" class="edge">
<title>in&#45;&gt;h11</title>
<path fill="none" stroke="#000000" d="M54.3806,-164.243C74.1444,-179.6947 109.7189,-207.5075 131.4607,-224.5057"/>
<polygon fill="#000000" stroke="#000000" points="130.599,-226.0533 135.6159,-227.7542 132.7547,-223.2959 130.599,-226.0533"/>
</g>
<!-- h12 -->
<g id="node3" class="node">
<title>h12</title>
<ellipse fill="none" stroke="#0000ff" cx="150" cy="-77" rx="18" ry="18"/>
</g>
<!-- in&#45;&gt;h12 -->
<g id="edge2" class="edge">
<title>in&#45;&gt;h12</title>
<path fill="none" stroke="#000000" d="M54.8351,-142.7503C74.5172,-129.1518 109.288,-105.1283 130.9083,-90.1906"/>
<polygon fill="#000000" stroke="#000000" points="131.9297,-91.612 135.0486,-87.33 129.9402,-88.7324 131.9297,-91.612"/>
</g>
<!-- h13 -->
<g id="node4" class="node">
<title>h13</title>
<ellipse fill="none" stroke="#0000ff" cx="150" cy="-34" rx="18" ry="18"/>
</g>
<!-- in&#45;&gt;h13 -->
<g id="edge3" class="edge">
<title>in&#45;&gt;h13</title>
<path fill="none" stroke="#000000" d="M52.6184,-139.3492C72.6766,-117.6498 111.8169,-75.3072 133.8784,-51.4407"/>
<polygon fill="#000000" stroke="#000000" points="135.4199,-52.3512 137.5288,-47.4916 132.8497,-49.9754 135.4199,-52.3512"/>
</g>
<!-- h14 -->
<g id="node8" class="node">
<title>h14</title>
<ellipse fill="none" stroke="#0000ff" cx="150" cy="-196" rx="18" ry="18"/>
</g>
<!-- in&#45;&gt;h14 -->
<g id="edge4" class="edge">
<title>in&#45;&gt;h14</title>
<path fill="none" stroke="#000000" d="M57.1875,-159.7188C76.319,-167.1974 107.2814,-179.3009 128.1263,-187.4494"/>
<polygon fill="#000000" stroke="#000000" points="127.6392,-189.1379 132.9332,-189.3284 128.9135,-185.8781 127.6392,-189.1379"/>
</g>
<!-- h15 -->
<g id="node9" class="node">
<title>h15</title>
<ellipse fill="none" stroke="#0000ff" cx="150" cy="-153" rx="18" ry="18"/>
</g>
<!-- in&#45;&gt;h15 -->
<g id="edge5" class="edge">
<title>in&#45;&gt;h15</title>
<path fill="none" stroke="#000000" d="M58.1643,-153C76.8736,-153 106.1076,-153 126.5522,-153"/>
<polygon fill="#000000" stroke="#000000" points="126.8088,-154.7501 131.8088,-153 126.8087,-151.2501 126.8088,-154.7501"/>
</g>
<!-- mu1 -->
<g id="node10" class="node">
<title>mu1</title>
<ellipse fill="none" stroke="#0000ff" cx="245" cy="-222" rx="18" ry="18"/>
</g>
<!-- h11&#45;&gt;mu1 -->
<g id="edge6" class="edge">
<title>h11&#45;&gt;mu1</title>
<path fill="none" stroke="#000000" d="M167.8688,-235.8024C183.261,-233.048 205.5648,-229.0568 222.2332,-226.0741"/>
<polygon fill="#000000" stroke="#000000" points="222.5978,-227.7867 227.2114,-225.1832 221.9812,-224.3414 222.5978,-227.7867"/>
</g>
<!-- mu2 -->
<g id="node11" class="node">
<title>mu2</title>
<ellipse fill="none" stroke="#0000ff" cx="245" cy="-179" rx="18" ry="18"/>
</g>
<!-- h11&#45;&gt;mu2 -->
<g id="edge7" class="edge">
<title>h11&#45;&gt;mu2</title>
<path fill="none" stroke="#000000" d="M165.2634,-229.36C181.6064,-219.038 207.5895,-202.6277 225.4261,-191.3625"/>
<polygon fill="#000000" stroke="#000000" points="226.4815,-192.7657 229.7745,-188.6161 224.6125,-189.8065 226.4815,-192.7657"/>
</g>
<!-- logvar1 -->
<g id="node12" class="node">
<title>logvar1</title>
<ellipse fill="none" stroke="#0000ff" cx="245" cy="-94" rx="18" ry="18"/>
</g>
<!-- h11&#45;&gt;logvar1 -->
<g id="edge16" class="edge">
<title>h11&#45;&gt;logvar1</title>
<path fill="none" stroke="#000000" d="M159.9871,-223.7565C177.2609,-197.3913 212.7066,-143.2899 231.9215,-113.9619"/>
<polygon fill="#000000" stroke="#000000" points="233.5844,-114.617 234.8608,-109.4757 230.6568,-112.6989 233.5844,-114.617"/>
</g>
<!-- logvar2 -->
<g id="node13" class="node">
<title>logvar2</title>
<ellipse fill="none" stroke="#0000ff" cx="245" cy="-51" rx="18" ry="18"/>
</g>
<!-- h11&#45;&gt;logvar2 -->
<g id="edge17" class="edge">
<title>h11&#45;&gt;logvar2</title>
<path fill="none" stroke="#000000" d="M158.2644,-222.6451C175.5023,-188.5323 215.2731,-109.8279 234.3779,-72.0206"/>
<polygon fill="#000000" stroke="#000000" points="236.1291,-72.4351 236.8223,-67.1832 233.0053,-70.8565 236.1291,-72.4351"/>
</g>
<!-- h12&#45;&gt;mu1 -->
<g id="edge8" class="edge">
<title>h12&#45;&gt;mu1</title>
<path fill="none" stroke="#000000" d="M159.9871,-92.2435C177.2609,-118.6087 212.7066,-172.7101 231.9215,-202.0381"/>
<polygon fill="#000000" stroke="#000000" points="230.6568,-203.3011 234.8608,-206.5243 233.5844,-201.383 230.6568,-203.3011"/>
</g>
<!-- h12&#45;&gt;mu2 -->
<g id="edge9" class="edge">
<title>h12&#45;&gt;mu2</title>
<path fill="none" stroke="#000000" d="M162.4196,-90.3347C179.4884,-108.6612 210.2118,-141.6485 228.9888,-161.8091"/>
<polygon fill="#000000" stroke="#000000" points="227.889,-163.1959 232.5774,-165.662 230.4502,-160.8104 227.889,-163.1959"/>
</g>
<!-- h12&#45;&gt;logvar1 -->
<g id="edge18" class="edge">
<title>h12&#45;&gt;logvar1</title>
<path fill="none" stroke="#000000" d="M167.8688,-80.1976C183.261,-82.952 205.5648,-86.9432 222.2332,-89.9259"/>
<polygon fill="#000000" stroke="#000000" points="221.9812,-91.6586 227.2114,-90.8168 222.5978,-88.2133 221.9812,-91.6586"/>
</g>
<!-- h12&#45;&gt;logvar2 -->
<g id="edge19" class="edge">
<title>h12&#45;&gt;logvar2</title>
<path fill="none" stroke="#000000" d="M167.4245,-72.2312C182.8615,-68.0063 205.4979,-61.8111 222.3384,-57.2021"/>
<polygon fill="#000000" stroke="#000000" points="223.0036,-58.8345 227.3643,-55.8266 222.0796,-55.4586 223.0036,-58.8345"/>
</g>
<!-- h13&#45;&gt;mu1 -->
<g id="edge10" class="edge">
<title>h13&#45;&gt;mu1</title>
<path fill="none" stroke="#000000" d="M158.2644,-50.3549C175.5023,-84.4677 215.2731,-163.1721 234.3779,-200.9794"/>
<polygon fill="#000000" stroke="#000000" points="233.0053,-202.1435 236.8223,-205.8168 236.1291,-200.5649 233.0053,-202.1435"/>
</g>
<!-- h13&#45;&gt;mu2 -->
<g id="edge11" class="edge">
<title>h13&#45;&gt;mu2</title>
<path fill="none" stroke="#000000" d="M159.9871,-49.2435C177.2609,-75.6087 212.7066,-129.7101 231.9215,-159.0381"/>
<polygon fill="#000000" stroke="#000000" points="230.6568,-160.3011 234.8608,-163.5243 233.5844,-158.383 230.6568,-160.3011"/>
</g>
<!-- h13&#45;&gt;logvar1 -->
<g id="edge20" class="edge">
<title>h13&#45;&gt;logvar1</title>
<path fill="none" stroke="#000000" d="M165.2634,-43.64C181.6064,-53.962 207.5895,-70.3723 225.4261,-81.6375"/>
<polygon fill="#000000" stroke="#000000" points="224.6125,-83.1935 229.7745,-84.3839 226.4815,-80.2343 224.6125,-83.1935"/>
</g>
<!-- h13&#45;&gt;logvar2 -->
<g id="edge21" class="edge">
<title>h13&#45;&gt;logvar2</title>
<path fill="none" stroke="#000000" d="M167.8688,-37.1976C183.261,-39.952 205.5648,-43.9432 222.2332,-46.9259"/>
<polygon fill="#000000" stroke="#000000" points="221.9812,-48.6586 227.2114,-47.8168 222.5978,-45.2133 221.9812,-48.6586"/>
</g>
<!-- p11 -->
<g id="node5" class="node">
<title>p11</title>
<ellipse fill="#000000" stroke="#000000" cx="150" cy="-126" rx="1.8" ry="1.8"/>
</g>
<!-- p12 -->
<g id="node6" class="node">
<title>p12</title>
<ellipse fill="#000000" stroke="#000000" cx="150" cy="-115" rx="1.8" ry="1.8"/>
</g>
<!-- p13 -->
<g id="node7" class="node">
<title>p13</title>
<ellipse fill="#000000" stroke="#000000" cx="150" cy="-104" rx="1.8" ry="1.8"/>
</g>
<!-- h14&#45;&gt;mu1 -->
<g id="edge12" class="edge">
<title>h14&#45;&gt;mu1</title>
<path fill="none" stroke="#000000" d="M167.4245,-200.7688C182.8615,-204.9937 205.4979,-211.1889 222.3384,-215.7979"/>
<polygon fill="#000000" stroke="#000000" points="222.0796,-217.5414 227.3643,-217.1734 223.0036,-214.1655 222.0796,-217.5414"/>
</g>
<!-- h14&#45;&gt;mu2 -->
<g id="edge13" class="edge">
<title>h14&#45;&gt;mu2</title>
<path fill="none" stroke="#000000" d="M167.8688,-192.8024C183.261,-190.048 205.5648,-186.0568 222.2332,-183.0741"/>
<polygon fill="#000000" stroke="#000000" points="222.5978,-184.7867 227.2114,-182.1832 221.9812,-181.3414 222.5978,-184.7867"/>
</g>
<!-- h14&#45;&gt;logvar1 -->
<g id="edge22" class="edge">
<title>h14&#45;&gt;logvar1</title>
<path fill="none" stroke="#000000" d="M162.4196,-182.6653C179.4884,-164.3388 210.2118,-131.3515 228.9888,-111.1909"/>
<polygon fill="#000000" stroke="#000000" points="230.4502,-112.1896 232.5774,-107.338 227.889,-109.8041 230.4502,-112.1896"/>
</g>
<!-- h14&#45;&gt;logvar2 -->
<g id="edge23" class="edge">
<title>h14&#45;&gt;logvar2</title>
<path fill="none" stroke="#000000" d="M159.9871,-180.7565C177.2609,-154.3913 212.7066,-100.2899 231.9215,-70.9619"/>
<polygon fill="#000000" stroke="#000000" points="233.5844,-71.617 234.8608,-66.4757 230.6568,-69.6989 233.5844,-71.617"/>
</g>
<!-- h15&#45;&gt;mu1 -->
<g id="edge14" class="edge">
<title>h15&#45;&gt;mu1</title>
<path fill="none" stroke="#000000" d="M164.8438,-163.7813C181.2967,-175.7313 207.8812,-195.04 225.8807,-208.1133"/>
<polygon fill="#000000" stroke="#000000" points="225.1865,-209.772 230.2605,-211.2945 227.2434,-206.9402 225.1865,-209.772"/>
</g>
<!-- h15&#45;&gt;mu2 -->
<g id="edge15" class="edge">
<title>h15&#45;&gt;mu2</title>
<path fill="none" stroke="#000000" d="M167.4245,-157.7688C182.8615,-161.9937 205.4979,-168.1889 222.3384,-172.7979"/>
<polygon fill="#000000" stroke="#000000" points="222.0796,-174.5414 227.3643,-174.1734 223.0036,-171.1655 222.0796,-174.5414"/>
</g>
<!-- h15&#45;&gt;logvar1 -->
<g id="edge24" class="edge">
<title>h15&#45;&gt;logvar1</title>
<path fill="none" stroke="#000000" d="M165.6873,-143.2573C182.0113,-133.1193 207.6125,-117.2196 225.2912,-106.2402"/>
<polygon fill="#000000" stroke="#000000" points="226.2804,-107.686 229.6046,-103.5614 224.4338,-104.7127 226.2804,-107.686"/>
</g>
<!-- h15&#45;&gt;logvar2 -->
<g id="edge25" class="edge">
<title>h15&#45;&gt;logvar2</title>
<path fill="none" stroke="#000000" d="M162.4196,-139.6653C179.4884,-121.3388 210.2118,-88.3515 228.9888,-68.1909"/>
<polygon fill="#000000" stroke="#000000" points="230.4502,-69.1896 232.5774,-64.338 227.889,-66.8041 230.4502,-69.1896"/>
</g>
<!-- z1 -->
<g id="node14" class="node">
<title>z1</title>
<ellipse fill="none" stroke="#0000ff" cx="335" cy="-200" rx="18" ry="18"/>
</g>
<!-- mu1&#45;&gt;z1 -->
<g id="edge26" class="edge">
<title>mu1&#45;&gt;z1</title>
<path fill="none" stroke="#000000" d="M262.7811,-217.6535C276.9569,-214.1883 296.905,-209.3121 312.2452,-205.5623"/>
<polygon fill="#000000" stroke="#000000" points="312.8144,-207.2248 317.2558,-204.3375 311.9833,-203.8249 312.8144,-207.2248"/>
</g>
<!-- z2 -->
<g id="node15" class="node">
<title>z2</title>
<ellipse fill="none" stroke="#0000ff" cx="335" cy="-157" rx="18" ry="18"/>
</g>
<!-- mu2&#45;&gt;z2 -->
<g id="edge27" class="edge">
<title>mu2&#45;&gt;z2</title>
<path fill="none" stroke="#000000" d="M262.7811,-174.6535C276.9569,-171.1883 296.905,-166.3121 312.2452,-162.5623"/>
<polygon fill="#000000" stroke="#000000" points="312.8144,-164.2248 317.2558,-161.3375 311.9833,-160.8249 312.8144,-164.2248"/>
</g>
<!-- logvar1&#45;&gt;z1 -->
<g id="edge28" class="edge">
<title>logvar1&#45;&gt;z1</title>
<path fill="none" stroke="#000000" d="M256.7659,-107.8576C272.9363,-126.9028 302.0428,-161.1837 319.8315,-182.1349"/>
<polygon fill="#000000" stroke="#000000" points="318.661,-183.4601 323.2312,-186.1389 321.329,-181.1948 318.661,-183.4601"/>
</g>
<!-- logvar2&#45;&gt;z2 -->
<g id="edge29" class="edge">
<title>logvar2&#45;&gt;z2</title>
<path fill="none" stroke="#000000" d="M256.7659,-64.8576C272.9363,-83.9028 302.0428,-118.1837 319.8315,-139.1349"/>
<polygon fill="#000000" stroke="#000000" points="318.661,-140.4601 323.2312,-143.1389 321.329,-138.1948 318.661,-140.4601"/>
</g>
<!-- h21 -->
<g id="node16" class="node">
<title>h21</title>
<ellipse fill="none" stroke="#0000ff" cx="448" cy="-222" rx="18" ry="18"/>
</g>
<!-- z1&#45;&gt;h21 -->
<g id="edge30" class="edge">
<title>z1&#45;&gt;h21</title>
<path fill="none" stroke="#000000" d="M352.9052,-203.486C372.4938,-207.2997 403.9383,-213.4216 425.2577,-217.5723"/>
<polygon fill="#000000" stroke="#000000" points="424.9363,-219.2925 430.1786,-218.5303 425.6052,-215.857 424.9363,-219.2925"/>
</g>
<!-- h22 -->
<g id="node17" class="node">
<title>h22</title>
<ellipse fill="none" stroke="#0000ff" cx="448" cy="-179" rx="18" ry="18"/>
</g>
<!-- z1&#45;&gt;h22 -->
<g id="edge31" class="edge">
<title>z1&#45;&gt;h22</title>
<path fill="none" stroke="#000000" d="M352.9052,-196.6725C372.4938,-193.0321 403.9383,-187.1885 425.2577,-183.2264"/>
<polygon fill="#000000" stroke="#000000" points="425.5825,-184.9461 430.1786,-182.3119 424.943,-181.505 425.5825,-184.9461"/>
</g>
<!-- h23 -->
<g id="node18" class="node">
<title>h23</title>
<ellipse fill="none" stroke="#0000ff" cx="448" cy="-265" rx="18" ry="18"/>
</g>
<!-- z1&#45;&gt;h23 -->
<g id="edge32" class="edge">
<title>z1&#45;&gt;h23</title>
<path fill="none" stroke="#000000" d="M350.7122,-209.038C370.7543,-220.5666 405.4583,-240.5291 427.5452,-253.234"/>
<polygon fill="#000000" stroke="#000000" points="426.8503,-254.8531 432.057,-255.8292 428.5955,-251.8192 426.8503,-254.8531"/>
</g>
<!-- h24 -->
<g id="node22" class="node">
<title>h24</title>
<ellipse fill="none" stroke="#0000ff" cx="448" cy="-103" rx="18" ry="18"/>
</g>
<!-- z1&#45;&gt;h24 -->
<g id="edge33" class="edge">
<title>z1&#45;&gt;h24</title>
<path fill="none" stroke="#000000" d="M348.856,-188.1059C369.273,-170.5798 407.4519,-137.8067 430.0085,-118.4441"/>
<polygon fill="#000000" stroke="#000000" points="431.3766,-119.576 434.0306,-114.9914 429.0968,-116.9203 431.3766,-119.576"/>
</g>
<!-- h25 -->
<g id="node23" class="node">
<title>h25</title>
<ellipse fill="none" stroke="#0000ff" cx="448" cy="-60" rx="18" ry="18"/>
</g>
<!-- z1&#45;&gt;h25 -->
<g id="edge34" class="edge">
<title>z1&#45;&gt;h25</title>
<path fill="none" stroke="#000000" d="M346.4569,-185.8056C367.0998,-160.2303 410.5067,-106.4519 433.304,-78.2075"/>
<polygon fill="#000000" stroke="#000000" points="434.7341,-79.2219 436.5128,-74.232 432.0106,-77.0236 434.7341,-79.2219"/>
</g>
<!-- z2&#45;&gt;h21 -->
<g id="edge35" class="edge">
<title>z2&#45;&gt;h21</title>
<path fill="none" stroke="#000000" d="M350.7122,-166.038C370.7543,-177.5666 405.4583,-197.5291 427.5452,-210.234"/>
<polygon fill="#000000" stroke="#000000" points="426.8503,-211.8531 432.057,-212.8292 428.5955,-208.8192 426.8503,-211.8531"/>
</g>
<!-- z2&#45;&gt;h22 -->
<g id="edge36" class="edge">
<title>z2&#45;&gt;h22</title>
<path fill="none" stroke="#000000" d="M352.9052,-160.486C372.4938,-164.2997 403.9383,-170.4216 425.2577,-174.5723"/>
<polygon fill="#000000" stroke="#000000" points="424.9363,-176.2925 430.1786,-175.5303 425.6052,-172.857 424.9363,-176.2925"/>
</g>
<!-- z2&#45;&gt;h23 -->
<g id="edge37" class="edge">
<title>z2&#45;&gt;h23</title>
<path fill="none" stroke="#000000" d="M348.4063,-169.8131C369.0754,-189.5676 408.6878,-227.4273 431.2266,-248.9688"/>
<polygon fill="#000000" stroke="#000000" points="430.1361,-250.3473 434.9599,-252.5369 432.5544,-247.8171 430.1361,-250.3473"/>
</g>
<!-- z2&#45;&gt;h24 -->
<g id="edge38" class="edge">
<title>z2&#45;&gt;h24</title>
<path fill="none" stroke="#000000" d="M351.6735,-149.0321C371.65,-139.4858 405.1412,-123.4812 426.9007,-113.0829"/>
<polygon fill="#000000" stroke="#000000" points="427.8687,-114.5599 431.6254,-110.825 426.3595,-111.402 427.8687,-114.5599"/>
</g>
<!-- z2&#45;&gt;h25 -->
<g id="edge39" class="edge">
<title>z2&#45;&gt;h25</title>
<path fill="none" stroke="#000000" d="M348.856,-145.1059C369.273,-127.5798 407.4519,-94.8067 430.0085,-75.4441"/>
<polygon fill="#000000" stroke="#000000" points="431.3766,-76.576 434.0306,-71.9914 429.0968,-73.9203 431.3766,-76.576"/>
</g>
<!-- out -->
<g id="node24" class="node">
<title>out</title>
<ellipse fill="none" stroke="#ff0000" cx="562" cy="-179" rx="18" ry="18"/>
</g>
<!-- h21&#45;&gt;out -->
<g id="edge40" class="edge">
<title>h21&#45;&gt;out</title>
<path fill="none" stroke="#000000" d="M465.3141,-215.4692C485.3502,-207.9117 518.374,-195.4554 540.1574,-187.2389"/>
<polygon fill="#000000" stroke="#000000" points="540.8358,-188.8534 544.8964,-185.4513 539.6005,-185.5786 540.8358,-188.8534"/>
</g>
<!-- h22&#45;&gt;out -->
<g id="edge41" class="edge">
<title>h22&#45;&gt;out</title>
<path fill="none" stroke="#000000" d="M466.0636,-179C485.6264,-179 516.9102,-179 538.4031,-179"/>
<polygon fill="#000000" stroke="#000000" points="538.6434,-180.7501 543.6434,-179 538.6433,-177.2501 538.6434,-180.7501"/>
</g>
<!-- h23&#45;&gt;out -->
<g id="edge42" class="edge">
<title>h23&#45;&gt;out</title>
<path fill="none" stroke="#000000" d="M462.4382,-254.108C482.9689,-238.6199 520.6154,-210.2199 543.2707,-193.1291"/>
<polygon fill="#000000" stroke="#000000" points="544.3813,-194.4835 547.319,-190.0752 542.2734,-191.6893 544.3813,-194.4835"/>
</g>
<!-- p21 -->
<g id="node19" class="node">
<title>p21</title>
<ellipse fill="#000000" stroke="#000000" cx="448" cy="-152" rx="1.8" ry="1.8"/>
</g>
<!-- p22 -->
<g id="node20" class="node">
<title>p22</title>
<ellipse fill="#000000" stroke="#000000" cx="448" cy="-141" rx="1.8" ry="1.8"/>
</g>
<!-- p23 -->
<g id="node21" class="node">
<title>p23</title>
<ellipse fill="#000000" stroke="#000000" cx="448" cy="-130" rx="1.8" ry="1.8"/>
</g>
<!-- h24&#45;&gt;out -->
<g id="edge43" class="edge">
<title>h24&#45;&gt;out</title>
<path fill="none" stroke="#000000" d="M463.3745,-113.2497C483.8863,-126.9242 520.2107,-151.1405 542.5883,-166.0589"/>
<polygon fill="#000000" stroke="#000000" points="541.738,-167.5952 546.869,-168.9127 543.6795,-164.6831 541.738,-167.5952"/>
</g>
<!-- h25&#45;&gt;out -->
<g id="edge44" class="edge">
<title>h25&#45;&gt;out</title>
<path fill="none" stroke="#000000" d="M460.6356,-73.1898C481.4359,-94.9024 522.8637,-138.1472 545.7927,-162.0819"/>
<polygon fill="#000000" stroke="#000000" points="544.5852,-163.3512 549.3078,-165.7512 547.1127,-160.93 544.5852,-163.3512"/>
</g>
</g>
</svg>
