<?xml version="1.0" encoding="UTF-8" standalone="no"?>
<!DOCTYPE svg PUBLIC "-//W3C//DTD SVG 1.1//EN"
 "http://www.w3.org/Graphics/SVG/1.1/DTD/svg11.dtd">
<!-- Generated by graphviz version 2.40.1 (20161225.0304)
 -->
<!-- Title: telegram Pages: 1 -->
<svg width="600pt" height="101pt"
 viewBox="0.00 0.00 599.54 101.00" xmlns="http://www.w3.org/2000/svg" xmlns:xlink="http://www.w3.org/1999/xlink">
<g id="graph0" class="graph" transform="scale(1 1) rotate(0) translate(4 97)">
<title>telegram</title>
<polygon fill="#ffffff" stroke="transparent" points="-4,4 -4,-97 595.5358,-97 595.5358,4 -4,4"/>
<g id="clust1" class="cluster">
<title>cluster_sending</title>
<polygon fill="none" stroke="#000000" points="8,-8 8,-85 267.5,-85 267.5,-8 8,-8"/>
<text text-anchor="middle" x="137.75" y="-68.4" font-family="Times,serif" font-size="14.00" fill="#000000">发送方</text>
</g>
<g id="clust2" class="cluster">
<title>cluster_recieving</title>
<polygon fill="none" stroke="#000000" points="324.0358,-8 324.0358,-85 583.5358,-85 583.5358,-8 324.0358,-8"/>
<text text-anchor="middle" x="453.7858" y="-68.4" font-family="Times,serif" font-size="14.00" fill="#000000">接收方</text>
</g>
<!-- 汉字send -->
<g id="node1" class="node">
<title>汉字send</title>
<polygon fill="none" stroke="#000000" points="77.252,-52 16.248,-52 16.248,-16 77.252,-16 77.252,-52"/>
<text text-anchor="middle" x="46.75" y="-29.8" font-family="Times,serif" font-size="14.00" fill="#000000">我爱你</text>
</g>
<!-- 中文电码send -->
<g id="node2" class="node">
<title>中文电码send</title>
<polygon fill="none" stroke="#000000" points="259.5,-52 152.5,-52 152.5,-16 259.5,-16 259.5,-52"/>
<text text-anchor="middle" x="206" y="-29.8" font-family="Times,serif" font-size="14.00" fill="#000000">2053 1947 0132</text>
</g>
<!-- 汉字send&#45;&gt;中文电码send -->
<g id="edge2" class="edge">
<title>汉字send&#45;&gt;中文电码send</title>
<path fill="none" stroke="#000000" d="M77.455,-34C95.8741,-34 119.9953,-34 142.3614,-34"/>
<polygon fill="#000000" stroke="#000000" points="142.4875,-37.5001 152.4875,-34 142.4874,-30.5001 142.4875,-37.5001"/>
</g>
<!-- 中文电码 -->
<g id="node3" class="node">
<title>中文电码</title>
<polygon fill="none" stroke="#000000" points="439.0358,-52 332.0358,-52 332.0358,-16 439.0358,-16 439.0358,-52"/>
<text text-anchor="middle" x="385.5358" y="-29.8" font-family="Times,serif" font-size="14.00" fill="#000000">2053 1947 0132</text>
</g>
<!-- 中文电码send&#45;&gt;中文电码 -->
<g id="edge3" class="edge">
<title>中文电码send&#45;&gt;中文电码</title>
<path fill="none" stroke="#000000" stroke-dasharray="5,2" d="M259.8667,-34C279.3941,-34 301.6353,-34 321.9234,-34"/>
<polygon fill="#000000" stroke="#000000" points="322.0168,-37.5001 332.0167,-34 322.0167,-30.5001 322.0168,-37.5001"/>
<text text-anchor="middle" x="295.7679" y="-38.2" font-family="Times,serif" font-size="14.00" fill="#000000">小纸条</text>
</g>
<!-- 汉字 -->
<g id="node4" class="node">
<title>汉字</title>
<polygon fill="none" stroke="#000000" points="575.2878,-52 514.2838,-52 514.2838,-16 575.2878,-16 575.2878,-52"/>
<text text-anchor="middle" x="544.7858" y="-29.8" font-family="Times,serif" font-size="14.00" fill="#000000">我爱你</text>
</g>
<!-- 中文电码&#45;&gt;汉字 -->
<g id="edge1" class="edge">
<title>中文电码&#45;&gt;汉字</title>
<path fill="none" stroke="#000000" d="M439.4506,-34C460.561,-34 484.3724,-34 504.0087,-34"/>
<polygon fill="#000000" stroke="#000000" points="504.1515,-37.5001 514.1515,-34 504.1515,-30.5001 504.1515,-37.5001"/>
</g>
</g>
</svg>
