<?xml version="1.0" encoding="UTF-8" standalone="no"?>
<!DOCTYPE svg PUBLIC "-//W3C//DTD SVG 1.1//EN"
 "http://www.w3.org/Graphics/SVG/1.1/DTD/svg11.dtd">
<!-- Generated by graphviz version 2.40.1 (20161225.0304)
 -->
<!-- Title: telegram Pages: 1 -->
<svg width="379pt" height="83pt"
 viewBox="0.00 0.00 378.80 83.43" xmlns="http://www.w3.org/2000/svg" xmlns:xlink="http://www.w3.org/1999/xlink">
<g id="graph0" class="graph" transform="scale(1 1) rotate(0) translate(4 79.4295)">
<title>telegram</title>
<polygon fill="#ffffff" stroke="transparent" points="-4,4 -4,-79.4295 374.7986,-79.4295 374.7986,4 -4,4"/>
<!-- y -->
<g id="node1" class="node">
<title>y</title>
<ellipse fill="none" stroke="#000000" cx="60.6606" cy="-22.6295" rx="60.8217" ry="18"/>
<text text-anchor="middle" x="60.6606" y="-18.4295" font-family="Times,serif" font-size="14.00" fill="#000000">待输入韵母</text>
</g>
<!-- y&#45;&gt;y -->
<g id="edge3" class="edge">
<title>y&#45;&gt;y</title>
<path fill="none" stroke="#000000" d="M38.3334,-39.6668C33.7768,-49.4874 41.2192,-58.6295 60.6606,-58.6295 72.8115,-58.6295 80.2753,-55.0584 83.052,-49.9824"/>
<polygon fill="#000000" stroke="#000000" points="86.55,-49.6448 82.9879,-39.6668 79.5502,-49.6884 86.55,-49.6448"/>
<text text-anchor="middle" x="60.6606" y="-62.8295" font-family="Times,serif" font-size="14.00" fill="#000000">输入的韵母不合法</text>
</g>
<!-- s -->
<g id="node2" class="node">
<title>s</title>
<ellipse fill="none" stroke="#000000" cx="312.2809" cy="-22.6295" rx="58.5356" ry="18"/>
<text text-anchor="middle" x="312.2809" y="-18.4295" font-family="Times,serif" font-size="14.00" fill="#000000">待输入声母</text>
</g>
<!-- y&#45;&gt;s -->
<g id="edge2" class="edge">
<title>y&#45;&gt;s</title>
<path fill="none" stroke="#000000" d="M121.5709,-22.6295C158.4207,-22.6295 205.4998,-22.6295 243.661,-22.6295"/>
<polygon fill="#000000" stroke="#000000" points="243.6642,-26.1296 253.6642,-22.6295 243.6641,-19.1296 243.6642,-26.1296"/>
<text text-anchor="middle" x="187.5422" y="-26.8295" font-family="Times,serif" font-size="14.00" fill="#000000">输入的韵母合法</text>
</g>
<!-- s&#45;&gt;y -->
<g id="edge1" class="edge">
<title>s&#45;&gt;y</title>
<path fill="none" stroke="#000000" d="M269.7194,-10.2486C258.7516,-7.5908 246.8989,-5.1775 235.7631,-3.8295 193.2107,1.3213 181.8898,1.1868 139.3213,-3.8295 131.2912,-4.7758 122.8936,-6.2476 114.7,-7.9607"/>
<polygon fill="#000000" stroke="#000000" points="113.8478,-4.5646 104.8453,-10.1508 115.3665,-11.3979 113.8478,-4.5646"/>
<text text-anchor="middle" x="187.5422" y="-7.8295" font-family="Times,serif" font-size="14.00" fill="#000000">输入一个字符</text>
</g>
</g>
</svg>
