<?xml version="1.0" encoding="UTF-8" standalone="no"?>
<!DOCTYPE svg PUBLIC "-//W3C//DTD SVG 1.1//EN"
 "http://www.w3.org/Graphics/SVG/1.1/DTD/svg11.dtd">
<!-- Generated by graphviz version 2.40.1 (20161225.0304)
 -->
<!-- Title: SaveTypeFlow Pages: 1 -->
<svg width="474pt" height="986pt"
 viewBox="0.00 0.00 473.80 986.20" xmlns="http://www.w3.org/2000/svg" xmlns:xlink="http://www.w3.org/1999/xlink">
<g id="graph0" class="graph" transform="scale(1 1) rotate(0) translate(4 982.2)">
<title>SaveTypeFlow</title>
<polygon fill="#ffffff" stroke="transparent" points="-4,4 -4,-982.2 469.8045,-982.2 469.8045,4 -4,4"/>
<!-- Start -->
<g id="node1" class="node">
<title>Start</title>
<polygon fill="none" stroke="#000000" points="253.7519,-978.2 199.7519,-978.2 199.7519,-942.2 253.7519,-942.2 253.7519,-978.2"/>
<text text-anchor="middle" x="226.7519" y="-956" font-family="SimSun" font-size="14.00" fill="#000000">开始</text>
</g>
<!-- CheckSaveType -->
<g id="node2" class="node">
<title>CheckSaveType</title>
<polygon fill="none" stroke="#000000" points="226.7519,-905.2 96.9276,-854.7 226.7519,-804.2 356.5761,-854.7 226.7519,-905.2"/>
<text text-anchor="middle" x="226.7519" y="-850.5" font-family="SimSun" font-size="14.00" fill="#000000">游戏存档类型是 FLASH？</text>
</g>
<!-- Start&#45;&gt;CheckSaveType -->
<g id="edge1" class="edge">
<title>Start&#45;&gt;CheckSaveType</title>
<path fill="none" stroke="#000000" d="M226.7519,-941.8233C226.7519,-934.287 226.7519,-925.0927 226.7519,-915.5357"/>
<polygon fill="#000000" stroke="#000000" points="230.252,-915.4993 226.7519,-905.4993 223.252,-915.4993 230.252,-915.4993"/>
</g>
<!-- CheckCartType -->
<g id="node3" class="node">
<title>CheckCartType</title>
<polygon fill="none" stroke="#000000" points="138.7519,-751.4 .2477,-700.9 138.7519,-650.4 277.256,-700.9 138.7519,-751.4"/>
<text text-anchor="middle" x="138.7519" y="-696.7" font-family="SimSun" font-size="14.00" fill="#000000">烧录目标是 FLASH 卡带？</text>
</g>
<!-- CheckSaveType&#45;&gt;CheckCartType -->
<g id="edge2" class="edge">
<title>CheckSaveType&#45;&gt;CheckCartType</title>
<path fill="none" stroke="#000000" d="M202.9378,-813.0795C192.1232,-794.1786 179.2315,-771.6473 167.8487,-751.7533"/>
<polygon fill="#000000" stroke="#000000" points="170.742,-749.7624 162.7378,-742.8209 164.6663,-753.2388 170.742,-749.7624"/>
<text text-anchor="middle" x="193.1432" y="-773.6" font-family="Times,serif" font-size="14.00" fill="#000000">是</text>
</g>
<!-- NeedSRAMPatch -->
<g id="node5" class="node">
<title>NeedSRAMPatch</title>
<polygon fill="none" stroke="#000000" points="394.5052,-597.6 212.9985,-597.6 212.9985,-561.6 394.5052,-561.6 394.5052,-597.6"/>
<text text-anchor="middle" x="303.7519" y="-575.4" font-family="SimSun" font-size="14.00" fill="#000000">给游戏 ROM 打 SRAM 补丁</text>
</g>
<!-- CheckSaveType&#45;&gt;NeedSRAMPatch -->
<g id="edge3" class="edge">
<title>CheckSaveType&#45;&gt;NeedSRAMPatch</title>
<path fill="none" stroke="#000000" d="M255.2583,-814.8884C267.0141,-796.4418 279.5486,-773.7014 286.7519,-751.4 302.4627,-702.7591 304.7855,-642.6808 304.5856,-607.9908"/>
<polygon fill="#000000" stroke="#000000" points="308.081,-607.6182 304.4459,-597.6666 301.0817,-607.7131 308.081,-607.6182"/>
<text text-anchor="middle" x="309.7519" y="-696.7" font-family="Times,serif" font-size="14.00" fill="#000000">否</text>
</g>
<!-- NoPatch -->
<g id="node4" class="node">
<title>NoPatch</title>
<polygon fill="none" stroke="#000000" points="219.9414,-543.6 57.5623,-543.6 57.5623,-507.6 219.9414,-507.6 219.9414,-543.6"/>
<text text-anchor="middle" x="138.7519" y="-521.4" font-family="SimSun" font-size="14.00" fill="#000000">无需给游戏 ROM 打补丁</text>
</g>
<!-- CheckCartType&#45;&gt;NoPatch -->
<g id="edge4" class="edge">
<title>CheckCartType&#45;&gt;NoPatch</title>
<path fill="none" stroke="#000000" d="M138.7519,-650.196C138.7519,-618.8745 138.7519,-579.8485 138.7519,-553.9038"/>
<polygon fill="#000000" stroke="#000000" points="142.252,-553.6461 138.7519,-543.6462 135.252,-553.6462 142.252,-553.6461"/>
<text text-anchor="middle" x="146.1432" y="-619.8" font-family="Times,serif" font-size="14.00" fill="#000000">是</text>
</g>
<!-- CheckCartType&#45;&gt;NeedSRAMPatch -->
<g id="edge5" class="edge">
<title>CheckCartType&#45;&gt;NeedSRAMPatch</title>
<path fill="none" stroke="#000000" d="M184.7136,-667.1112C212.0092,-647.0448 245.9919,-622.0623 270.6526,-603.9329"/>
<polygon fill="#000000" stroke="#000000" points="272.9765,-606.5686 278.9604,-597.8255 268.8302,-600.9287 272.9765,-606.5686"/>
<text text-anchor="middle" x="256.7519" y="-619.8" font-family="Times,serif" font-size="14.00" fill="#000000">否</text>
</g>
<!-- End -->
<g id="node10" class="node">
<title>End</title>
<polygon fill="none" stroke="#000000" points="321.7519,-36 267.7519,-36 267.7519,0 321.7519,0 321.7519,-36"/>
<text text-anchor="middle" x="294.7519" y="-13.8" font-family="SimSun" font-size="14.00" fill="#000000">结束</text>
</g>
<!-- NoPatch&#45;&gt;End -->
<g id="edge6" class="edge">
<title>NoPatch&#45;&gt;End</title>
<path fill="none" stroke="#000000" d="M138.7519,-507.4652C138.7519,-477.3134 138.7519,-414.9646 138.7519,-362.2 138.7519,-362.2 138.7519,-362.2 138.7519,-91 138.7519,-64.8136 211.7744,-40.2885 257.8994,-27.4091"/>
<polygon fill="#000000" stroke="#000000" points="258.8539,-30.7767 267.5787,-24.766 257.0099,-24.0239 258.8539,-30.7767"/>
</g>
<!-- CheckBattery -->
<g id="node6" class="node">
<title>CheckBattery</title>
<polygon fill="none" stroke="#000000" points="303.7519,-489.6 175.8141,-439.1 303.7519,-388.6 431.6896,-439.1 303.7519,-489.6"/>
<text text-anchor="middle" x="303.7519" y="-434.9" font-family="SimSun" font-size="14.00" fill="#000000">SRAM 卡带是否带电池？</text>
</g>
<!-- NeedSRAMPatch&#45;&gt;CheckBattery -->
<g id="edge7" class="edge">
<title>NeedSRAMPatch&#45;&gt;CheckBattery</title>
<path fill="none" stroke="#000000" d="M303.7519,-561.5197C303.7519,-545.8375 303.7519,-522.209 303.7519,-499.8805"/>
<polygon fill="#000000" stroke="#000000" points="307.252,-499.7461 303.7519,-489.7462 300.252,-499.7462 307.252,-499.7461"/>
</g>
<!-- NeedNoBatteryPatch -->
<g id="node7" class="node">
<title>NeedNoBatteryPatch</title>
<polygon fill="none" stroke="#000000" points="307.6257,-335.8 217.878,-335.8 217.878,-299.8 307.6257,-299.8 307.6257,-335.8"/>
<text text-anchor="middle" x="262.7519" y="-313.6" font-family="SimSun" font-size="14.00" fill="#000000">再打免电补丁</text>
</g>
<!-- CheckBattery&#45;&gt;NeedNoBatteryPatch -->
<g id="edge9" class="edge">
<title>CheckBattery&#45;&gt;NeedNoBatteryPatch</title>
<path fill="none" stroke="#000000" d="M288.6015,-394.277C283.0947,-377.985 277.0342,-360.0547 272.1663,-345.6529"/>
<polygon fill="#000000" stroke="#000000" points="275.3753,-344.2163 268.8574,-335.8636 268.7439,-346.4578 275.3753,-344.2163"/>
<text text-anchor="middle" x="285.7519" y="-358" font-family="Times,serif" font-size="14.00" fill="#000000">否</text>
</g>
<!-- TestSave -->
<g id="node8" class="node">
<title>TestSave</title>
<polygon fill="none" stroke="#000000" points="341.7519,-262.8 230.2066,-212.3 341.7519,-161.8 453.2972,-212.3 341.7519,-262.8"/>
<text text-anchor="middle" x="341.7519" y="-208.1" font-family="SimSun" font-size="14.00" fill="#000000">游戏能否正常保存？</text>
</g>
<!-- CheckBattery&#45;&gt;TestSave -->
<g id="edge8" class="edge">
<title>CheckBattery&#45;&gt;TestSave</title>
<path fill="none" stroke="#000000" d="M311.7179,-391.5553C317.6659,-356.055 325.8217,-307.3776 332.1335,-269.7064"/>
<polygon fill="#000000" stroke="#000000" points="335.6608,-269.8341 333.8615,-259.3931 328.7571,-268.6773 335.6608,-269.8341"/>
<text text-anchor="middle" x="333.1432" y="-313.6" font-family="Times,serif" font-size="14.00" fill="#000000">是</text>
</g>
<!-- NeedNoBatteryPatch&#45;&gt;TestSave -->
<g id="edge10" class="edge">
<title>NeedNoBatteryPatch&#45;&gt;TestSave</title>
<path fill="none" stroke="#000000" d="M276.5126,-299.4233C285.0121,-288.0727 296.3278,-272.9612 307.1461,-258.514"/>
<polygon fill="#000000" stroke="#000000" points="310.2409,-260.2203 313.4333,-250.1179 304.6377,-256.0245 310.2409,-260.2203"/>
</g>
<!-- UseBatteryCart -->
<g id="node9" class="node">
<title>UseBatteryCart</title>
<polygon fill="none" stroke="#000000" points="422.6671,-109 166.8366,-109 166.8366,-73 422.6671,-73 422.6671,-109"/>
<text text-anchor="middle" x="294.7519" y="-86.8" font-family="SimSun" font-size="14.00" fill="#000000">改用带电池的 SRAM 卡带和不免电的 ROM</text>
</g>
<!-- TestSave&#45;&gt;UseBatteryCart -->
<g id="edge12" class="edge">
<title>TestSave&#45;&gt;UseBatteryCart</title>
<path fill="none" stroke="#000000" d="M325.0491,-169.1926C318.5748,-152.4836 311.3475,-133.8309 305.5759,-118.9353"/>
<polygon fill="#000000" stroke="#000000" points="308.7165,-117.3532 301.8399,-109.2932 302.1894,-119.8823 308.7165,-117.3532"/>
<text text-anchor="middle" x="332.6085" y="-131.2" font-family="Times,serif" font-size="14.00" fill="#000000">不能</text>
</g>
<!-- TestSave&#45;&gt;End -->
<g id="edge11" class="edge">
<title>TestSave&#45;&gt;End</title>
<path fill="none" stroke="#000000" d="M385.0575,-181.0737C418.9736,-152.6807 456.5873,-109.7325 431.7519,-73 409.6012,-40.2384 364.3816,-26.989 331.9492,-21.6324"/>
<polygon fill="#000000" stroke="#000000" points="332.3169,-18.1489 321.9139,-20.1558 331.2979,-25.0743 332.3169,-18.1489"/>
<text text-anchor="middle" x="452.7782" y="-86.8" font-family="Times,serif" font-size="14.00" fill="#000000">能</text>
</g>
<!-- UseBatteryCart&#45;&gt;End -->
<g id="edge13" class="edge">
<title>UseBatteryCart&#45;&gt;End</title>
<path fill="none" stroke="#000000" d="M294.7519,-72.9551C294.7519,-64.8828 294.7519,-55.1764 294.7519,-46.1817"/>
<polygon fill="#000000" stroke="#000000" points="298.252,-46.0903 294.7519,-36.0904 291.252,-46.0904 298.252,-46.0903"/>
</g>
</g>
</svg>
